<?xml version="1.0" encoding="UTF-8"?>
<svg version="1.1" xmlns="http://www.w3.org/2000/svg" width="512" height="512">
<path d="M0 0 C1.8785936 -0.00599222 3.75718475 -0.01279935 5.63577271 -0.02035522 C10.71661746 -0.03795293 15.79739476 -0.042708 20.87826705 -0.0439868 C24.05945449 -0.04541262 27.24062502 -0.0496904 30.42180824 -0.05498123 C41.53951727 -0.07346172 52.65717847 -0.08165443 63.77490234 -0.08007812 C74.10636108 -0.07887764 84.43761061 -0.09996683 94.76901644 -0.13156545 C103.66535484 -0.15779648 112.56162519 -0.16844255 121.45800191 -0.16716731 C126.75970123 -0.16665963 132.0612145 -0.1722346 137.36287498 -0.19352341 C142.35430806 -0.21302088 147.3453798 -0.21295223 152.33682632 -0.19849014 C154.15756705 -0.19641507 155.97833109 -0.20102425 157.79903221 -0.21321106 C186.43833818 -0.39232763 203.30570799 11.29111253 223.16455078 30.89208984 C226.53150936 34.22783899 229.89129676 37.57073295 233.24926758 40.91552734 C234.13419577 41.79638 235.01912395 42.67723267 235.93086815 43.58477783 C240.12620227 47.76151601 244.31953673 51.94024504 248.50978595 56.12208366 C253.30644823 60.90895001 258.11131311 65.68738431 262.9231742 70.45897102 C267.12753865 74.6293732 271.32074104 78.81088197 275.51018333 82.99627686 C277.27891148 84.76015874 279.05099409 86.52068403 280.8265934 88.27764893 C296.92712608 104.21948397 310.50806899 119.97626145 310.66279733 143.76780814 C310.65815153 145.36003139 310.65815153 145.36003139 310.65341187 146.98442078 C310.65794298 148.13379444 310.66247409 149.28316811 310.66714251 150.46737128 C310.67976362 154.30389106 310.67816759 158.14026845 310.67651367 161.97680664 C310.68141601 164.73371411 310.6892501 167.4906117 310.6968689 170.24751282 C310.71344024 176.95065319 310.7189767 183.65375837 310.72009365 190.35691752 C310.72104603 195.80948646 310.72516577 201.26204386 310.7314949 206.71460915 C310.74909729 222.1957054 310.75833542 237.67677399 310.75683396 253.15788033 C310.75675404 253.99144632 310.75667413 254.82501232 310.7565918 255.68383789 C310.75651004 256.5184294 310.75642827 257.3530209 310.75634404 258.21290306 C310.75553157 271.73089425 310.77466188 285.24877389 310.80286853 298.76673283 C310.83164563 312.66850584 310.84540615 326.57022455 310.84368098 340.47202808 C310.84301871 348.26811456 310.84843913 356.06408412 310.87003708 363.86014366 C310.88831261 370.49915028 310.8925443 377.13798699 310.87901823 383.77700796 C310.87252014 387.15916765 310.87445958 390.54073807 310.88972473 393.92290878 C310.9884738 417.32599462 308.32626855 435.70897261 291.38598633 453.29052734 C272.37921747 469.78589131 252.9266808 470.73981254 228.96411133 470.67871094 C226.2838027 470.68278044 223.60351897 470.68801688 220.92321777 470.69464111 C214.422799 470.70792128 207.92248464 470.70512638 201.42206192 470.69640319 C196.13500366 470.6896044 190.84797448 470.68871937 185.56091309 470.69197464 C184.80597887 470.69243434 184.05104466 470.69289404 183.27323365 470.69336767 C181.73919009 470.69432693 180.20514654 470.69529957 178.671103 470.69628544 C164.31519608 470.70482259 149.95934681 470.69503159 135.60344934 470.67888434 C123.30827658 470.66548268 111.01318881 470.66781125 98.71801758 470.68164062 C84.41048155 470.69772613 70.10299593 470.70399877 55.79545212 470.69480383 C54.26732128 470.69384827 52.73919043 470.69290516 51.21105957 470.69197464 C50.45935745 470.69151181 49.70765534 470.69104899 48.93317437 470.69057214 C43.65770769 470.68799114 38.38227322 470.69233394 33.10681152 470.6994133 C26.67027029 470.70786161 20.23383869 470.70547863 13.79730988 470.68957107 C10.51865629 470.68173281 7.24022086 470.68015835 3.96156311 470.68851852 C-19.47747741 470.74275662 -39.0421588 468.69993056 -56.61401367 451.29052734 C-69.43449806 436.66997495 -74.0892199 421.41801276 -74.00169373 402.24308777 C-74.0058735 400.74214049 -74.01135453 399.24119637 -74.01801354 397.74025804 C-74.03240266 393.64190284 -74.02824399 389.54374986 -74.02084672 385.44538391 C-74.01610105 381.01511962 -74.0286373 376.58489821 -74.03886414 372.15464783 C-74.05603056 363.485247 -74.05689656 354.81591872 -74.05165123 346.14650532 C-74.047604 339.09691824 -74.04905966 332.04735255 -74.05439949 324.99776649 C-74.05514791 323.99306751 -74.05589633 322.98836853 -74.05666744 321.95322413 C-74.05819897 319.91193323 -74.05973732 317.87064235 -74.0612824 315.82935146 C-74.07499984 296.7006863 -74.06957525 277.57206208 -74.05809719 258.44339786 C-74.04816735 240.9615603 -74.06110255 223.47982861 -74.08503138 205.99800738 C-74.10944208 188.02812333 -74.1190253 170.05828856 -74.11237866 152.08838826 C-74.1088906 142.00750958 -74.11109112 131.92671229 -74.12862968 121.84584618 C-74.14337637 113.26354949 -74.14395499 104.68139149 -74.12655877 96.09909745 C-74.11806638 91.72464915 -74.11585589 87.35044836 -74.13121033 82.97601318 C-74.14512039 78.96322441 -74.140214 74.95089371 -74.12097109 70.93813101 C-74.11722999 69.49474916 -74.12007789 68.05133006 -74.13058274 66.60798158 C-74.26099398 47.3004577 -68.02431424 31.23806645 -54.61401367 17.29052734 C-38.29515623 2.59198199 -21.01125785 -0.01340637 0 0 Z M-35.61401367 31.29052734 C-36.88245117 32.12583984 -36.88245117 32.12583984 -38.17651367 32.97802734 C-47.05067363 41.39710217 -51.66743795 52.09609552 -52.11737823 64.29336548 C-52.13918468 66.92030358 -52.14009951 69.54155671 -52.12194824 72.16796875 C-52.12656649 73.63820829 -52.13292557 75.1084432 -52.14085722 76.57866859 C-52.15744708 80.5874771 -52.14935179 84.59590128 -52.13691235 88.60471058 C-52.12782145 92.94017358 -52.14185152 97.27557282 -52.15283203 101.61102295 C-52.17057891 110.09181233 -52.16679439 118.57245976 -52.15518147 127.0532546 C-52.1461323 133.94837702 -52.14492955 140.84345977 -52.14927673 147.73858643 C-52.14988967 148.72152447 -52.1505026 149.70446252 -52.1511341 150.71718657 C-52.15241306 152.7142714 -52.15370991 154.71135621 -52.15502447 156.70844102 C-52.16641904 175.41644687 -52.15333419 194.12437421 -52.131823 212.83236718 C-52.11395305 228.86989217 -52.11705747 244.90730132 -52.13549805 260.94482422 C-52.1569246 279.58782799 -52.16532051 298.23076302 -52.15304899 316.87377739 C-52.15177485 318.863341 -52.15051737 320.85290463 -52.14927673 322.84246826 C-52.14865963 323.82126312 -52.14804253 324.80005798 -52.14740673 325.80851328 C-52.14395918 332.69195946 -52.14976931 339.57536187 -52.15919495 346.45880127 C-52.17043615 354.85229466 -52.16733036 363.2456385 -52.14607197 371.63911486 C-52.13559005 375.91813159 -52.13139068 380.19689935 -52.14466858 384.475914 C-52.15665794 388.39913329 -52.14992333 392.32187472 -52.12875837 396.24505115 C-52.12431983 397.65808162 -52.12649618 399.07115314 -52.13626152 400.48415685 C-52.21656247 413.07730346 -50.17630604 423.71958797 -41.61401367 433.29052734 C-40.85088867 434.15677734 -40.08776367 435.02302734 -39.30151367 435.91552734 C-24.14720462 449.30770743 -8.16406708 448.8755325 11.07348633 448.80810547 C13.67497142 448.81353181 16.27645344 448.82065733 18.87792969 448.8293457 C25.1858686 448.84704851 31.49361617 448.843328 37.80156231 448.83169514 C42.93225856 448.82262841 48.06290153 448.82145075 53.19360352 448.82579041 C53.92633484 448.82640334 54.65906616 448.82701627 55.41400146 448.82764778 C56.90294903 448.82892679 58.39189658 448.83022365 59.88084412 448.83153814 C73.81328866 448.8429198 87.74562759 448.82986828 101.67805481 448.80833668 C113.60939732 448.79046787 125.54058412 448.79357266 137.47192383 448.81201172 C151.35756998 448.83346125 165.24312378 448.84182139 179.12878418 448.82956266 C180.61197915 448.82828859 182.09517414 448.8270311 183.57836914 448.82579041 C184.30795837 448.8251733 185.03754761 448.8245562 185.78924561 448.8239204 C190.9084293 448.82047972 196.02755397 448.82626804 201.14672852 448.83570862 C208.04813321 448.84815725 214.9492404 448.83918072 221.85061646 448.81613159 C224.37687698 448.81086216 226.90316234 448.81232782 229.42941284 448.82118225 C247.47417918 448.87857664 262.22091101 448.46315153 276.19848633 435.72802734 C285.35931369 425.52024828 288.7055499 416.07400583 288.62649536 402.46424866 C288.62820421 401.38429341 288.62991306 400.30433817 288.63167369 399.19165701 C288.63496368 395.57879399 288.62397279 391.96611735 288.61303711 388.35327148 C288.61247289 385.76113896 288.61278976 383.16900612 288.61392212 380.57687378 C288.61496927 374.9991927 288.60871041 369.42155852 288.59744644 363.84388924 C288.5811714 355.77958793 288.57598139 347.71530923 288.57347046 339.65099328 C288.5690965 326.56622551 288.55579551 313.48148273 288.53686523 300.39672852 C288.51849869 287.68839645 288.50434598 274.98007118 288.49584961 262.27172852 C288.49532416 261.48798774 288.49479872 260.70424697 288.49425735 259.89675648 C288.49164721 255.96484022 288.48911981 252.03292392 288.48663354 248.10100758 C288.46591035 215.49749599 288.43069297 182.89401501 288.38598633 150.29052734 C287.38533142 150.2846611 286.38467651 150.27879486 285.35369873 150.27275085 C275.88008612 150.21530407 266.40669823 150.1424296 256.93331528 150.05481243 C252.06404048 150.01026365 247.19484637 149.97097419 242.32543945 149.9440918 C237.61793605 149.91790324 232.9107458 149.87739325 228.20343781 149.82734108 C226.41593601 149.8107768 224.62838018 149.79919803 222.84081268 149.79291344 C204.40405618 149.72159475 189.53720877 146.92514007 175.67504883 133.76708984 C165.77296446 123.05391324 161.29287003 109.70302196 161.18066406 95.28735352 C161.17076447 94.49658417 161.16086487 93.70581482 161.15066528 92.89108276 C161.11918707 90.28858388 161.09434718 87.68606677 161.06958008 85.08349609 C161.04899873 83.27459755 161.02800195 81.46570368 161.00660706 79.65681458 C160.95150836 74.90414226 160.90204543 70.15142741 160.85375977 65.39868164 C160.80345547 60.54553458 160.74781608 55.692449 160.69262695 50.83935547 C160.58519469 41.32313199 160.48371676 31.80685505 160.38598633 22.29052734 C137.79337999 22.19692023 115.20080582 22.12646802 92.60804462 22.08327866 C82.11688552 22.0626885 71.62584719 22.03463592 61.13476562 21.98876953 C51.98647753 21.94879296 42.83827694 21.92306878 33.68990391 21.91417336 C28.84974687 21.9089769 24.00984009 21.89683779 19.16976357 21.86760712 C14.6052963 21.84026673 10.04118017 21.83211962 5.47663879 21.83809662 C3.80985792 21.83700465 2.14306416 21.82916239 0.4763546 21.81370544 C-12.73861692 21.69725962 -24.68912236 23.24750185 -35.61401367 31.29052734 Z M182.38598633 26.29052734 C182.3394305 35.22739842 182.3039999 44.16422707 182.28236198 53.10119343 C182.2719714 57.25199512 182.25789966 61.4027132 182.23510742 65.5534668 C182.21320906 69.56703183 182.20138227 73.58051697 182.19623184 77.59413719 C182.19256633 79.11736494 182.1854095 80.64058884 182.17452621 82.16378212 C182.01883275 101.86100071 182.01883275 101.86100071 191.46801758 118.52099609 C199.49680431 126.03003172 206.78926427 128.42271937 217.74658203 128.40405273 C218.83032356 128.40427177 218.83032356 128.40427177 219.93595886 128.40449524 C222.31125955 128.40380156 224.68648068 128.3960348 227.06176758 128.38818359 C228.71371925 128.38631748 230.36567148 128.38489449 232.0176239 128.38389587 C236.35606425 128.38008596 240.69447088 128.37026873 245.03289795 128.35919189 C249.46374048 128.34894494 253.89458848 128.34439122 258.32543945 128.33935547 C267.01230385 128.32864506 275.69914089 128.311587 284.38598633 128.29052734 C280.94170855 121.14597194 276.59186981 115.92520447 270.97485352 110.37768555 C270.14001938 109.53744843 269.30518524 108.6972113 268.4450531 107.83151245 C265.70078212 105.07480151 262.94234778 102.33278214 260.18286133 99.59130859 C258.25939132 97.66959659 256.33847929 95.74533391 254.41729736 93.82133484 C250.39609388 89.7974376 246.36692137 85.78165929 242.33276367 81.77075195 C237.68651993 77.15110354 233.05281855 72.51916335 228.42573237 67.88033229 C223.95248585 63.39625912 219.47073342 58.9207814 214.9850235 54.4491787 C213.0862121 52.55608583 211.19077452 50.65979338 209.29677582 48.76186562 C206.64337049 46.10553376 203.98040668 43.45916238 201.31469727 40.81518555 C200.54139572 40.03738235 199.76809418 39.25957916 198.97135925 38.45820618 C191.63058436 30.54746148 191.63058436 30.54746148 182.38598633 26.29052734 Z " fill="#000000" transform="translate(137.614013671875,20.70947265625)"/>
<path d="M0 0 C0.74765625 -0.04898438 1.4953125 -0.09796875 2.265625 -0.1484375 C5.9481768 0.62744606 8.31405682 2.61322735 10.75 5.375 C12.34221125 8.38269917 13.34621351 11.51569806 14.36865234 14.75512695 C14.68164276 15.69219986 14.99463318 16.62927277 15.31710815 17.59474182 C16.34200477 20.67845298 17.33900535 23.77042809 18.3359375 26.86328125 C19.04310475 29.00904154 19.75200193 31.15423241 20.46255493 33.2988739 C22.32434224 38.93377345 24.16257073 44.5760871 25.99597168 50.22027588 C27.87244855 55.98290002 29.77114142 61.73819002 31.66796875 67.49414062 C35.38373842 78.7806997 39.07465671 90.07521746 42.75 101.375 C45.28793354 95.18625645 47.63875306 88.98336069 49.7109375 82.62402344 C49.97819641 81.812901 50.24545532 81.00177856 50.52081299 80.16607666 C51.09389374 78.42602433 51.66563903 76.68553169 52.23614502 74.94463348 C53.14109138 72.18530986 54.05101384 69.42767329 54.96240234 66.67047119 C57.55081189 58.83844508 60.13406771 51.00474861 62.70507812 43.16699219 C64.28400825 38.35479823 65.87175691 33.54559051 67.46514893 28.73816681 C68.06808922 26.91328348 68.66770079 25.08729672 69.26385498 23.26018524 C70.09728866 20.70676359 70.94189986 18.15729239 71.7890625 15.60839844 C72.0302179 14.86021851 72.27137329 14.11203857 72.51983643 13.34118652 C76.09281836 2.70359082 76.09281836 2.70359082 80.75 0.375 C82.95703125 0.1015625 82.95703125 0.1015625 85.5625 0 C86.84060547 -0.07347656 86.84060547 -0.07347656 88.14453125 -0.1484375 C91.93886884 0.61384322 93.25067884 2.45888314 95.75 5.375 C96.90177159 7.92849144 97.82296605 10.28602915 98.66796875 12.93359375 C98.92301178 13.69072159 99.17805481 14.44784943 99.44082642 15.22792053 C100.28712135 17.75166063 101.11211777 20.28185111 101.9375 22.8125 C102.53140594 24.59551578 103.12673682 26.37805746 103.72338867 28.16015625 C105.02705568 32.06342662 106.3212143 35.96968129 107.60839844 39.87841797 C110.75412534 49.43034591 113.93477888 58.97065837 117.11254883 68.51196289 C118.73822897 73.39328089 120.35730689 78.27671595 121.97143555 83.16186523 C122.71660804 85.41000213 123.46180538 87.65813079 124.20703125 89.90625 C124.55118073 90.95224869 124.8953302 91.99824738 125.24990845 93.07594299 C125.56551727 94.02605759 125.8811261 94.97617218 126.20629883 95.95507812 C126.48161942 96.78849731 126.75694 97.6219165 127.04060364 98.48059082 C127.59425942 100.35733518 127.59425942 100.35733518 128.75 101.375 C129.13757477 100.18340775 129.52514954 98.99181549 129.92446899 97.76411438 C133.58113714 86.53047654 137.25842855 75.3037761 140.95597267 64.08352375 C142.85622113 58.31496167 144.74914557 52.54420876 146.62548828 46.76782227 C148.43683714 41.19243417 150.2672171 35.62363061 152.11091232 30.05885887 C152.81064411 27.93566004 153.50351105 25.81018598 154.18935013 23.68245888 C155.15188854 20.70035028 156.13861703 17.72729772 157.13134766 14.75512695 C157.40899963 13.87543243 157.68665161 12.99573792 157.97271729 12.08938599 C159.87537948 6.50392795 161.81257362 3.67456607 166.75 0.375 C169.85510312 -0.44588933 172.60976818 -0.26692584 175.75 0.375 C178.62029869 2.16893668 180.24131638 3.35763276 181.75 6.375 C182.71485968 14.47765721 180.54890523 21.38659747 177.95800781 28.98144531 C177.35317062 30.81260391 177.35317062 30.81260391 176.7361145 32.68075562 C175.63802138 36.00333483 174.52141997 39.31940939 173.40070438 42.63441563 C172.22635357 46.11701646 171.06774329 49.6048518 169.90692139 53.09197998 C167.95673834 58.94242226 165.99482129 64.78882339 164.02539062 70.6328125 C161.75252457 77.37755512 159.49662176 84.12778255 157.2500813 90.8813355 C155.08234752 97.39716831 152.9043723 103.90952952 150.72115326 110.4201889 C149.79478851 113.18298635 148.87167775 115.94683883 147.95114899 118.711586 C146.6645768 122.57339479 145.36290382 126.42994859 144.05957031 130.28613281 C143.6812204 131.42704376 143.30287048 132.56795471 142.91305542 133.74343872 C138.60952964 146.3818229 138.60952964 146.3818229 133.77734375 149.75 C131.45451194 150.46609458 129.73450385 150.57648386 127.3125 150.375 C126.57128906 150.33375 125.83007812 150.2925 125.06640625 150.25 C121.61025026 148.94447059 119.77648678 146.34671915 117.75 143.375 C116.61275568 140.76323178 115.66352136 138.30719147 114.796875 135.61328125 C114.53905243 134.84945633 114.28122986 134.08563141 114.01559448 133.29866028 C113.16416997 130.76571425 112.33199394 128.22688814 111.5 125.6875 C110.9039779 123.89984541 110.30678328 122.11258139 109.70849609 120.32568359 C108.41470082 116.45432916 107.12914591 112.58035701 105.84863281 108.70458984 C103.60952217 101.93635093 101.33221945 95.18116722 99.0546875 88.42578125 C97.87939043 84.93155202 96.70505856 81.43700075 95.53137207 77.94223022 C94.76071064 75.64816402 93.98914536 73.35440126 93.2166748 71.0609436 C92.13201739 67.83642477 91.05343653 64.60993771 89.9765625 61.3828125 C89.64913055 60.41277786 89.32169861 59.44274323 88.98434448 58.4433136 C88.68867584 57.55339218 88.3930072 56.66347076 88.08837891 55.74658203 C87.69871445 54.5830571 87.69871445 54.5830571 87.30117798 53.39602661 C86.75 51.375 86.75 51.375 86.75 48.375 C86.09 48.375 85.43 48.375 84.75 48.375 C84.63822324 48.9211005 84.52644648 49.467201 84.41128254 50.02985001 C83.23293703 55.57889638 81.7228725 60.9213737 79.94018555 66.30371094 C79.66507141 67.14555435 79.38995728 67.98739777 79.10650635 68.85475159 C78.20492534 71.60796993 77.29651436 74.35886098 76.38671875 77.109375 C75.91891463 78.52738277 75.91891463 78.52738277 75.44165993 79.97403717 C73.79400927 84.96760213 72.14105166 89.95937288 70.48364258 94.94970703 C68.77572215 100.09558426 67.08604716 105.24726181 65.400424 110.40047836 C64.09701138 114.37411242 62.78023574 118.34322407 61.45978737 122.31122589 C60.83085188 124.20894058 60.20693502 126.10832636 59.58820152 128.00939178 C58.72223524 130.66580758 57.83750822 133.31525798 56.94799805 135.96386719 C56.6979451 136.74526566 56.44789215 137.52666412 56.19026184 138.33174133 C54.56055504 143.10203378 52.72897705 146.06973811 48.75 149.375 C46.50390625 150.22265625 46.50390625 150.22265625 44.3125 150.4375 C43.59191406 150.53160156 42.87132812 150.62570312 42.12890625 150.72265625 C38.55333595 150.20011806 36.56927539 148.6022574 33.75 146.375 C32.16439819 143.40365601 32.16439819 143.40365601 30.93115234 139.75927734 C30.69174612 139.07057241 30.4523399 138.38186749 30.20567894 137.67229271 C29.66696072 136.11209903 29.13820024 134.54844378 28.61760712 132.98210907 C27.68582513 130.18215823 26.72590132 127.39287974 25.76202393 124.6038208 C23.426946 117.82198139 21.13634899 111.02548436 18.8515625 104.2265625 C18.43782757 102.99600506 18.02409264 101.76544762 17.59782028 100.49760056 C15.86045064 95.32851736 14.12474625 90.15888006 12.39345741 84.98775673 C9.93310288 77.63926826 7.46252717 70.2943962 4.97795737 62.95405829 C3.0054646 57.12351185 1.04954498 51.28752298 -0.90071487 45.44950485 C-1.72730488 42.98313381 -2.55898691 40.51846304 -3.3959465 38.05559158 C-4.5637972 34.61535772 -5.71250958 31.16927718 -6.85693359 27.72119141 C-7.37578629 26.21384933 -7.37578629 26.21384933 -7.90512085 24.67605591 C-9.89909077 18.58750156 -11.1808728 12.80162804 -10.25 6.375 C-7.44452751 1.79272826 -5.27388331 0.23319892 0 0 Z " fill="#000000" transform="translate(170.25,255.625)"/>
</svg>
