<svg width="200" height="200" viewBox="0 0 200 200" fill="none" xmlns="http://www.w3.org/2000/svg">
<rect width="200" height="200" fill="none"/>
<g clip-path="url(#clip0_26_446)">
<path d="M109.097 58.786C110.296 59.1416 111.429 59.2202 112.671 59.2285C112.82 59.2325 112.969 59.2366 113.123 59.2407C114.525 59.2502 115.751 58.9514 116.797 57.9712C116.91 57.8677 117.022 57.7642 117.139 57.6576C117.219 57.5798 117.3 57.502 117.383 57.4219C117.512 57.4863 117.641 57.5508 117.773 57.6172C117.947 62.9055 117.947 62.9055 116.553 64.8804C116.44 64.9972 116.327 65.114 116.211 65.2344C116.436 65.7214 116.684 66.1345 116.992 66.5771C117.614 67.5492 117.823 68.3939 117.812 69.5419C117.81 69.7585 117.809 69.975 117.808 70.1981C117.804 70.4211 117.801 70.6442 117.798 70.874C117.796 71.1016 117.794 71.3292 117.793 71.5637C117.788 72.1233 117.782 72.6827 117.773 73.2422C117.925 73.301 118.076 73.3597 118.232 73.4203C119.859 74.0876 121.299 75.266 122.683 76.3321C123.031 76.5967 123.384 76.8537 123.746 77.0981C125.695 78.4491 126.179 80.7681 126.88 82.9346C126.954 83.1617 127.029 83.3888 127.106 83.6227C127.251 84.065 127.395 84.5075 127.539 84.9502C127.704 85.4544 127.874 85.9566 128.045 86.4586C128.427 87.6006 128.73 88.7666 129.036 89.9311C129.314 90.9434 129.584 91.7739 130.273 92.5781C130.729 92.5864 131.185 92.5861 131.641 92.5781C132.224 93.0424 132.559 93.4407 132.898 94.104C132.999 94.245 133.099 94.386 133.203 94.5313C133.392 94.5313 133.582 94.5313 133.777 94.5313C133.974 94.5313 134.172 94.5313 134.375 94.5313C134.916 95.1314 135.365 95.793 135.818 96.4607C135.94 96.6395 136.062 96.8183 136.188 97.0025C136.448 97.3867 136.707 97.7713 136.966 98.1563C137.771 99.3574 137.771 99.3574 138.632 100.519C139.355 101.472 139.75 102.116 139.685 103.333C139.616 103.785 139.537 104.237 139.453 104.688C139.413 104.97 139.375 105.253 139.338 105.536C138.272 113.371 135.279 121.299 130.664 127.734C130.567 127.871 130.469 128.008 130.369 128.148C128.868 130.246 127.306 132.259 125.586 134.18C125.419 134.369 125.252 134.557 125.079 134.752C122.874 137.203 120.569 139.569 117.969 141.602C117.746 141.787 117.523 141.974 117.301 142.161C112.39 146.279 106.86 149.715 101.025 152.368C100.902 152.426 100.779 152.484 100.652 152.543C99.6101 153 98.7529 153.083 97.6616 152.756C90.9347 149.796 84.3893 145.68 78.9932 140.677C78.5796 140.294 78.1605 139.92 77.7344 139.551C74.8887 137.067 74.8887 137.067 73.7503 135.713C73.4418 135.357 73.1178 135.032 72.7783 134.705C69.8939 131.846 67.4846 128.293 65.4297 124.805C65.3569 124.684 65.284 124.564 65.209 124.44C61.9549 119.048 60.0513 112.993 58.9045 106.831C58.804 106.325 58.6838 105.833 58.5487 105.336C58.2668 104.186 58.2457 103.312 58.8303 102.259C59.3166 101.483 59.8596 100.757 60.4202 100.033C60.9034 99.3971 61.333 98.7291 61.7676 98.0591C62.0015 97.7092 62.2369 97.3603 62.4725 97.0115C62.6917 96.6851 62.9072 96.3562 63.1226 96.0274C63.2555 95.8317 63.3884 95.6361 63.5254 95.4346C63.6392 95.2639 63.753 95.0932 63.8702 94.9173C64.37 94.4195 64.7465 94.4427 65.4297 94.3359C65.7676 93.9897 65.7676 93.9897 66.0034 93.5547C66.452 92.8919 66.5171 92.7959 67.334 92.5781C67.6758 92.5781 68.0176 92.5781 68.3594 92.5781C69.2631 91.5159 69.5481 90.2203 69.9341 88.9038C70.0871 88.3976 70.2407 87.8915 70.3949 87.3856C70.4349 87.2538 70.4749 87.122 70.5162 86.9863C70.9568 85.5402 71.4198 84.1015 71.8933 82.6659C71.9862 82.3831 72.0785 82.1001 72.1701 81.8169C72.2991 81.418 72.4304 81.02 72.5624 80.6221C72.6371 80.3943 72.7119 80.1664 72.7889 79.9317C73.7264 77.625 75.7932 76.4428 77.7954 75.1343C78.007 74.9947 78.2186 74.8551 78.4367 74.7112C78.8261 74.4544 79.2159 74.198 79.6061 73.9423C79.9597 73.7104 80.3122 73.4768 80.6641 73.2422C80.8574 73.2422 81.0508 73.2422 81.25 73.2422C81.2439 73.0445 81.2439 73.0445 81.2376 72.8429C81.2212 72.2355 81.2111 71.6281 81.2012 71.0205C81.1946 70.8133 81.1881 70.6061 81.1813 70.3926C81.1566 68.3802 81.6956 66.7706 83.0078 65.2344C83.5571 64.9536 83.5571 64.9536 83.9844 64.8438C83.9798 64.7327 83.9753 64.6217 83.9706 64.5073C83.9321 62.8583 84.2044 61.7528 85.3516 60.5469C85.416 60.5469 85.4805 60.5469 85.5469 60.5469C85.6113 61.3203 85.6758 62.0938 85.7422 62.8906C85.8993 62.6288 86.0564 62.3669 86.2183 62.0972C88.139 59.2516 91.908 57.8628 95.137 57.2121C99.8555 56.3836 104.599 57.3524 109.097 58.786Z" fill="#062D48"/>
<path d="M99.8047 41.0156C100.622 41.4001 101.381 41.8654 102.147 42.34C102.84 42.761 103.55 43.1507 104.26 43.5425C104.41 43.6252 104.56 43.7079 104.714 43.7931C105.016 43.9596 105.318 44.1258 105.62 44.2918C105.897 44.4444 106.174 44.5976 106.45 44.7516C110.227 46.8536 114.225 48.5398 118.281 50.0227C118.734 50.1893 119.185 50.3602 119.636 50.5325C127.589 53.5543 136.115 55.8606 144.571 56.9597C145.959 57.1524 147.341 57.3783 148.26 58.5113C148.696 59.2925 148.742 59.9027 148.731 60.7724C148.732 60.9297 148.733 61.087 148.734 61.249C148.737 61.7747 148.734 62.3002 148.731 62.8259C148.732 63.2037 148.733 63.5815 148.734 63.9593C148.737 64.9862 148.735 66.0131 148.731 67.0401C148.729 68.1213 148.73 69.2025 148.731 70.2837C148.731 72.1054 148.728 73.9271 148.724 75.7488C148.719 77.8371 148.718 79.9254 148.721 82.0137C148.723 84.036 148.722 86.0582 148.719 88.0805C148.718 88.9334 148.718 89.7864 148.719 90.6393C148.726 99.662 148.125 108.308 145.508 116.992C145.44 117.221 145.372 117.449 145.301 117.684C144.947 118.859 144.563 119.966 144.035 121.075C143.822 121.527 143.619 121.978 143.423 122.437C141.185 127.647 138.366 132.52 134.766 136.914C134.685 137.014 134.604 137.113 134.52 137.216C132.473 139.72 130.235 142.045 127.954 144.336C127.801 144.49 127.648 144.644 127.49 144.803C126.089 146.2 124.61 147.477 123.071 148.718C122.935 148.828 122.799 148.938 122.659 149.052C122.389 149.27 122.12 149.487 121.85 149.705C121.538 149.957 121.227 150.21 120.917 150.463C118.19 152.676 115.183 154.513 112.203 156.361C111.381 156.872 110.573 157.399 109.783 157.958C109.335 158.227 108.869 158.418 108.387 158.618C107.835 158.867 107.32 159.172 106.796 159.476C105.259 160.369 103.739 161.085 102.061 161.669C101.358 161.906 101.358 161.906 100.665 162.233C99.0333 162.888 97.4743 162.532 95.8954 161.89C95.7675 161.833 95.6396 161.777 95.5078 161.719C95.5078 161.59 95.5078 161.461 95.5078 161.328C95.2661 161.303 95.2661 161.303 95.0195 161.278C94.186 161.101 93.5236 160.769 92.7734 160.376C92.5725 160.273 92.5725 160.273 92.3676 160.168C92.1053 160.033 91.8433 159.898 91.5817 159.762C91.0701 159.498 90.5548 159.241 90.0391 158.984C90.0391 158.855 90.0391 158.727 90.0391 158.594C89.9102 158.582 89.7812 158.57 89.6484 158.557C88.953 158.369 88.4594 158.046 87.8647 157.648C87.4803 157.39 87.4803 157.39 86.9141 157.227C86.9141 157.098 86.9141 156.969 86.9141 156.836C86.7554 156.792 86.5968 156.748 86.4334 156.702C85.5717 156.382 84.8365 155.94 84.0576 155.457C83.9023 155.361 83.7469 155.265 83.5868 155.166C82.4853 154.479 81.4417 153.748 80.4153 152.952C79.8844 152.54 79.343 152.148 78.7964 151.758C77.6887 150.955 76.6382 150.092 75.5859 149.219C75.2238 148.926 74.8617 148.633 74.4995 148.34C73.6145 147.617 72.7624 146.864 71.9177 146.094C71.5639 145.775 71.2062 145.467 70.8374 145.166C69.9609 144.432 69.2097 143.62 68.4814 142.743C67.9343 142.122 67.3389 141.551 66.7404 140.98C65.4697 139.754 64.3977 138.433 63.3282 137.032C63.005 136.614 62.6666 136.21 62.3291 135.803C57.4917 129.737 53.653 122.384 51.7578 114.844C51.7017 114.625 51.7017 114.625 51.6444 114.402C50.1159 108.416 49.3897 102.447 49.3764 96.2757C49.3748 95.8692 49.3732 95.4627 49.3716 95.0563C49.3665 93.7336 49.3634 92.4108 49.3607 91.0881C49.3596 90.6309 49.3586 90.1736 49.3575 89.7164C49.3533 87.8158 49.3496 85.9152 49.3474 84.0146C49.3442 81.2971 49.3377 78.5797 49.3266 75.8622C49.3191 73.9465 49.3153 72.0308 49.3142 70.1151C49.3135 68.9724 49.3112 67.8297 49.3048 66.687C49.299 65.6143 49.2977 64.5417 49.3 63.469C49.3001 63.0755 49.2984 62.682 49.295 62.2885C49.2906 61.7514 49.2922 61.2146 49.2953 60.6775C49.2926 60.5218 49.2899 60.3661 49.2871 60.2057C49.3031 59.0827 49.5866 58.5984 50.3906 57.8125C51.3894 57.1471 52.4499 57.0548 53.6133 56.897C63.7774 55.3775 73.7117 52.5529 83.2031 48.6328C83.4919 48.514 83.4919 48.514 83.7866 48.3929C88.595 46.4004 93.2324 44.0634 97.6151 41.2521C98.3561 40.8462 99.0025 40.8372 99.8047 41.0156ZM86.7188 61.3281C86.3574 61.8361 86.0512 62.3475 85.7422 62.8906C85.6777 62.1172 85.6133 61.3438 85.5469 60.5469C84.5645 61.5034 84.0081 62.1434 83.9729 63.5399C83.9722 63.9747 83.9759 64.409 83.9844 64.8438C83.8358 64.8916 83.6873 64.9394 83.5342 64.9887C82.9366 65.2676 82.748 65.4903 82.3975 66.04C82.3043 66.1815 82.2112 66.323 82.1152 66.4688C81.2821 68.0302 81.1725 69.244 81.2134 70.9961C81.216 71.2126 81.2187 71.4291 81.2214 71.6522C81.2282 72.1823 81.2378 72.7122 81.25 73.2422C81.1346 73.2668 81.0193 73.2913 80.9004 73.3167C80.2112 73.5096 79.6398 73.9116 79.0405 74.292C78.8357 74.4215 78.8357 74.4215 78.6267 74.5535C77.6518 75.1774 76.6962 75.8253 75.7568 76.5015C75.6392 76.5848 75.5215 76.6681 75.4003 76.7539C73.669 78.0257 72.9309 79.4318 72.2656 81.4453C72.2098 81.6142 72.1539 81.783 72.0963 81.957C71.4668 83.8743 70.8592 85.798 70.2827 87.7319C70.2141 87.9606 70.1454 88.1893 70.0747 88.4249C69.9432 88.8646 69.8134 89.3048 69.6855 89.7455C69.0867 91.746 69.0867 91.746 68.3594 92.5781C67.9037 92.5864 67.4478 92.5861 66.9922 92.5781C66.4688 93.0064 66.1061 93.4107 65.7471 93.9819C65.4297 94.3359 65.4297 94.3359 64.7896 94.4679C63.8349 94.8075 63.5675 95.2579 63.0493 96.0938C62.9598 96.231 62.8702 96.3682 62.7779 96.5096C62.5867 96.8029 62.397 97.0972 62.2087 97.3924C61.8094 98.0147 61.3971 98.6281 60.9849 99.242C60.6046 99.8089 60.2263 100.377 59.8523 100.948C59.6546 101.242 59.4493 101.531 59.2387 101.816C58.5824 102.719 58.5824 102.719 58.3282 103.788C58.3675 104.008 58.4068 104.229 58.4473 104.456C58.4694 104.585 58.4916 104.714 58.5145 104.848C58.5679 105.146 58.6253 105.444 58.6858 105.741C58.8005 106.306 58.9023 106.874 59.005 107.442C60.5323 115.49 63.6916 122.9 68.5547 129.492C68.6393 129.607 68.7239 129.722 68.811 129.84C70.4685 132.073 72.2457 134.217 74.2416 136.156C74.5558 136.47 74.8348 136.786 75.1099 137.134C75.592 137.702 76.0976 138.158 76.664 138.639C77.1529 139.066 77.6239 139.508 78.0951 139.955C79.5355 141.316 81.0304 142.564 82.6172 143.75C82.7501 143.85 82.883 143.949 83.0199 144.052C86.1785 146.408 89.4768 148.491 92.944 150.361C93.351 150.581 93.7566 150.804 94.162 151.027C96.7361 152.573 96.7361 152.573 99.6094 152.93C99.8765 152.826 100.14 152.712 100.401 152.592C100.556 152.522 100.711 152.451 100.871 152.378C101.035 152.302 101.198 152.226 101.367 152.148C101.529 152.075 101.691 152.002 101.858 151.927C108.368 148.98 114.143 144.892 119.531 140.234C119.686 140.102 119.841 139.969 120 139.832C122.273 137.84 124.509 135.695 126.369 133.31C126.796 132.763 127.246 132.24 127.698 131.714C129.79 129.2 131.562 126.457 133.203 123.633C133.317 123.44 133.317 123.44 133.432 123.243C135.68 119.384 137.211 115.066 138.281 110.742C138.319 110.593 138.356 110.444 138.395 110.29C138.815 108.582 139.138 106.865 139.404 105.127C139.429 104.964 139.454 104.801 139.48 104.633C139.707 103.068 139.766 102.139 138.806 100.806C138.719 100.68 138.632 100.555 138.542 100.426C138.357 100.159 138.171 99.8935 137.984 99.6286C137.599 99.082 137.224 98.529 136.849 97.9762C136.495 97.4574 136.136 96.9424 135.777 96.4273C135.577 96.1378 135.384 95.8442 135.192 95.5498C134.826 95.0036 134.826 95.0036 134.375 94.5313C134.085 94.5373 134.085 94.5373 133.789 94.5435C133.596 94.5394 133.402 94.5354 133.203 94.5313C132.87 94.1004 132.605 93.6444 132.326 93.177C132.048 92.7125 132.048 92.7125 131.421 92.5781C131.236 92.5781 131.05 92.5781 130.859 92.5781C130.373 92.5114 130.152 92.4793 129.849 92.0833C129.392 91.0998 129.064 90.1247 128.796 89.0747C128.484 87.8811 128.133 86.7145 127.734 85.5469C127.614 85.1855 127.494 84.8242 127.375 84.4628C127.193 83.9179 127.01 83.3738 126.826 82.8298C126.732 82.5496 126.638 82.2692 126.545 81.9885C125.8 79.7365 125.163 77.9891 123.169 76.5869C123.034 76.4888 122.898 76.3906 122.759 76.2895C122.337 75.9859 121.911 75.6875 121.484 75.3906C121.346 75.294 121.208 75.1975 121.066 75.0979C120.67 74.8228 120.272 74.5504 119.873 74.2798C119.752 74.1974 119.631 74.1149 119.507 74.03C118.932 73.6487 118.446 73.3851 117.773 73.2422C117.78 73.0341 117.78 73.0341 117.786 72.8219C117.802 72.1848 117.812 71.5478 117.822 70.9106C117.832 70.5834 117.832 70.5834 117.842 70.2496C117.864 68.3748 117.484 67.0343 116.211 65.625C116.404 65.2376 116.598 64.8511 116.797 64.4669C116.861 64.3415 116.926 64.2161 116.992 64.0869C117.057 63.9625 117.121 63.8382 117.187 63.71C117.796 62.3751 117.821 61.2384 117.798 59.79C117.795 59.4766 117.795 59.4766 117.793 59.1568C117.788 58.6436 117.782 58.1304 117.773 57.6172C117.645 57.5527 117.516 57.4883 117.383 57.4219C117.213 57.5631 117.213 57.5631 117.039 57.7072C116.887 57.8306 116.734 57.9539 116.577 58.0811C116.428 58.2034 116.278 58.3258 116.124 58.4518C115.084 59.1545 114.059 59.2555 112.83 59.2529C112.677 59.2528 112.524 59.2526 112.367 59.2524C110.425 59.214 108.589 58.737 106.762 58.1055C100.618 56.0356 91.4294 56.1288 86.7188 61.3281Z" fill="#5FC2C5"/>
<path d="M87.6953 70.1172C88.5267 70.2471 89.2305 70.5315 90.0024 70.8618C91.5411 71.4985 93.0966 71.9258 94.7266 72.2656C94.889 72.3005 95.0515 72.3355 95.2189 72.3714C96.5402 72.6364 97.8116 72.725 99.1577 72.7173C99.4656 72.7156 99.4656 72.7156 99.7797 72.7139C103.311 72.6593 106.978 71.729 110.181 70.2278C110.649 70.0863 110.877 70.1276 111.328 70.3125C112.139 71.0168 112.635 71.8043 112.891 72.8516C112.375 72.8516 111.859 72.8516 111.328 72.8516C111.199 73.1094 111.07 73.3672 110.938 73.6328C110.744 73.5684 110.551 73.5039 110.352 73.4375C110.352 73.5664 110.352 73.6953 110.352 73.8281C110.548 73.823 110.745 73.8179 110.948 73.8126C111.687 73.7948 112.426 73.7837 113.165 73.7745C113.483 73.7696 113.801 73.763 114.12 73.7545C116.016 73.705 117.521 73.6901 119.141 74.8047C119.282 74.8944 119.423 74.984 119.568 75.0764C120.429 75.6376 121.255 76.2509 122.079 76.8646C122.406 77.1075 122.736 77.3452 123.067 77.5818C124.586 78.7767 125.047 80.243 125.586 82.0312C125.66 82.2659 125.733 82.5005 125.809 82.7423C125.936 83.1512 126.061 83.5611 126.18 83.9722C126.319 84.4147 126.474 84.8519 126.64 85.2852C127.024 86.2962 127.328 87.3305 127.637 88.3667C128.238 90.9271 128.238 90.9271 129.492 93.1641C129.197 93.9826 128.611 94.3462 127.917 94.812C126.766 95.6081 125.645 96.4365 124.536 97.29C124.389 97.4034 124.241 97.5169 124.089 97.6337C123.741 97.9013 123.394 98.1692 123.047 98.4375C122.632 98.2383 122.288 98.0662 121.939 97.7623C121.244 97.3018 120.477 97.1503 119.678 96.936C118.342 96.5595 117.111 96.1165 115.881 95.4712C115.752 95.4034 115.623 95.3355 115.489 95.2656C115.366 95.2008 115.243 95.1359 115.115 95.0691C113.719 94.3466 112.27 94.0388 110.746 93.6895C109.579 93.4176 108.426 93.1078 107.275 92.7734C107.11 92.7272 106.945 92.6809 106.775 92.6332C105.865 92.3628 105.183 92.0904 104.492 91.4062C104.236 90.8691 104.236 90.8691 104.102 90.4297C104.295 90.2363 104.488 90.043 104.688 89.8438C104.079 89.97 104.079 89.97 103.906 90.4297C103.811 91.3914 103.811 91.3914 104.211 92.2363C105.532 93.1845 107.14 93.4716 108.691 93.8599C109.157 93.978 109.623 94.0962 110.089 94.2146C110.305 94.2693 110.521 94.324 110.743 94.3803C111.398 94.5492 112.047 94.7302 112.695 94.9219C112.625 96.4864 112.33 97.9785 111.987 99.5017C111.935 99.7329 111.935 99.7329 111.883 99.9687C111.851 100.106 111.82 100.244 111.787 100.386C111.687 100.963 111.648 101.422 111.914 101.953C112.36 101.131 112.625 100.385 112.814 99.4705C112.865 99.2276 112.916 98.9846 112.968 98.7343C113.019 98.4833 113.07 98.2323 113.123 97.9736C113.176 97.7155 113.23 97.4573 113.284 97.1992C113.415 96.5706 113.544 95.9417 113.672 95.3125C114.557 95.5976 115.349 95.9437 116.174 96.3745C117.479 97.0415 118.737 97.526 120.166 97.8394C120.915 98.0516 121.313 98.301 121.875 98.8281C121.807 98.9691 121.738 99.1101 121.667 99.2554C121.448 99.9135 121.438 100.132 121.68 100.781C121.968 101.168 122.266 101.539 122.583 101.903C122.852 102.344 122.852 102.344 122.923 102.989C123.082 103.915 123.474 104.406 124.048 105.127C124.246 105.386 124.444 105.646 124.641 105.906C124.785 106.095 124.785 106.095 124.932 106.287C125.273 106.744 125.578 107.218 125.879 107.703C126.428 108.588 127.008 109.447 127.6 110.303C128.342 111.377 129.081 112.454 129.81 113.538C129.934 113.722 129.934 113.722 130.062 113.909C130.399 114.414 130.666 114.85 130.859 115.43C129.759 115.257 128.663 115.071 127.57 114.853C125.811 114.503 124.07 114.197 122.284 114.021C120.576 113.846 118.887 113.564 117.194 113.279C116.469 113.157 115.744 113.048 115.014 112.96C112.67 112.658 112.67 112.658 111.865 111.719C111.77 111.58 111.675 111.441 111.577 111.298C111.336 110.893 111.336 110.893 110.815 110.645C110.201 110.256 109.949 109.772 109.592 109.148C109.377 108.76 109.377 108.76 108.984 108.398C108.93 107.905 108.893 107.428 108.875 106.934C108.867 105.977 108.867 105.977 108.594 105.078C108.47 105.159 108.347 105.239 108.22 105.322C102.443 109.051 102.443 109.051 100.391 109.18C100.239 109.192 100.088 109.204 99.9321 109.216C96.4751 109.375 93.3516 107.391 90.625 105.469C90.3986 107.499 90.3986 107.499 91.0859 109.349C91.9293 110.163 92.9408 110.737 93.9453 111.328C94.2287 111.508 94.5113 111.688 94.7929 111.871C95.4226 112.275 96.0581 112.668 96.6988 113.055C97.3474 113.45 97.9899 113.854 98.6328 114.258C98.5039 114.322 98.375 114.387 98.2422 114.453C98.1777 114.646 98.1133 114.84 98.0469 115.039C97.2479 114.754 96.5988 114.363 95.8969 113.889C95.7863 113.815 95.6758 113.741 95.5618 113.664C95.2096 113.428 94.8582 113.19 94.5068 112.952C94.0468 112.641 93.5864 112.331 93.1259 112.022C93.0142 111.946 92.9025 111.871 92.7874 111.794C91.753 111.099 90.7039 110.428 89.6484 109.766C89.592 109.955 89.5356 110.144 89.4775 110.339C89.2578 110.938 89.2578 110.938 88.8672 111.133C88.9961 110.488 89.125 109.844 89.2578 109.18C89.1289 109.381 89 109.583 88.8672 109.79C88.3697 110.492 87.8076 110.95 87.1025 111.434C86.6999 111.709 86.6999 111.709 86.3884 112.119C85.723 112.681 85.0491 112.75 84.2041 112.891C83.9363 112.938 83.9363 112.938 83.663 112.987C81.883 113.294 80.092 113.524 78.3008 113.755C76.3944 114.002 74.4945 114.279 72.5952 114.575C72.4632 114.596 72.3313 114.616 72.1953 114.637C70.774 114.857 69.3682 115.097 67.9688 115.43C68.2444 114.662 68.6082 114.039 69.0674 113.367C69.2076 113.16 69.3479 112.953 69.4923 112.74C69.6341 112.532 69.7758 112.324 69.9219 112.109C70.1704 111.735 70.4187 111.361 70.6665 110.986C71.2776 110.07 71.8975 109.16 72.522 108.252C72.6114 108.122 72.7008 107.992 72.793 107.858C73.2737 107.16 73.7564 106.463 74.2409 105.767C74.3886 105.554 74.3886 105.554 74.5393 105.337C74.7287 105.064 74.9187 104.792 75.1093 104.519C75.7152 103.645 76.0594 103.029 75.9766 101.953C75.7832 101.76 75.7832 101.76 75.5859 101.562C75.7853 101.291 75.7853 101.291 75.9888 101.013C76.1761 100.705 76.1761 100.705 76.3672 100.391C76.1057 99.6062 75.7013 99.408 75.0366 98.9258C74.8299 98.7747 74.6232 98.6237 74.4102 98.468C74.2181 98.329 74.026 98.1901 73.8281 98.0469C73.5672 97.8522 73.3066 97.6572 73.0469 97.4609C73.1113 97.1387 73.1758 96.8164 73.2422 96.4844C72.7096 96.1054 72.1764 95.7272 71.6431 95.3491C71.4929 95.2422 71.3427 95.1354 71.188 95.0253C70.4551 94.5063 69.726 94.0006 68.9453 93.5547C69.0901 93.3505 69.2348 93.1463 69.384 92.9359C70.072 91.8313 70.3695 90.6371 70.7153 89.3921C70.8654 88.8712 71.0182 88.3511 71.1716 87.8311C71.2115 87.6955 71.2514 87.5598 71.2926 87.4201C71.7437 85.8992 72.2309 84.3908 72.7365 82.8872C72.8368 82.5876 72.9359 82.2877 73.0337 81.9874C73.8112 79.6056 74.648 78.2111 76.7334 76.7822C76.8766 76.6827 77.0198 76.5832 77.1673 76.4806C80.4627 74.2264 82.8776 73.3321 86.9141 73.6328C87.694 73.8066 88.355 74.0501 89.0625 74.4141C89.3525 74.5107 89.3525 74.5107 89.6484 74.6094C89.7451 74.3193 89.7451 74.3193 89.8438 74.0234C88.6838 73.5338 87.5581 73.1249 86.3281 72.8516C86.4375 72.0722 86.6712 71.577 87.1216 70.9351C87.2286 70.7807 87.3356 70.6264 87.4458 70.4674C87.5282 70.3518 87.6105 70.2363 87.6953 70.1172Z" fill="#062942"/>
<path d="M99.8047 51.1719C100.5 51.5148 101.17 51.8979 101.843 52.2827C106.108 54.6537 111.055 57.2917 115.82 58.3984C115.756 58.5918 115.691 58.7852 115.625 58.9844C114.714 59.4012 113.816 59.4503 112.83 59.4482C112.677 59.4481 112.524 59.4479 112.367 59.4477C110.425 59.4093 108.589 58.9323 106.762 58.3008C101.774 56.6205 95.8187 56.5228 90.979 58.7074C88.8874 59.7619 87.2273 60.7231 85.9764 62.7357C85.8991 62.8513 85.8218 62.9669 85.7422 63.0859C85.6777 63.0859 85.6133 63.0859 85.5469 63.0859C85.4824 62.3125 85.418 61.5391 85.3516 60.7422C84.3548 61.8438 84.2317 62.768 84.1309 64.2364C83.9844 64.8437 83.9844 64.8437 83.5228 65.1604C83.3528 65.2492 83.1829 65.3381 83.0078 65.4297C82.6582 65.8682 82.6582 65.8682 82.3852 66.3696C82.2898 66.532 82.1944 66.6944 82.0961 66.8617C81.5054 68.0449 81.427 68.9592 81.4514 70.2651C81.4576 70.9029 81.4456 71.5333 81.4102 72.1703C81.4012 72.358 81.3921 72.5457 81.3828 72.7392C81.2073 73.4038 80.9211 73.6088 80.3589 73.9868C80.0692 74.0827 80.0692 74.0827 79.7737 74.1806C78.9107 74.4803 78.2539 74.9485 77.5146 75.4761C77.3804 75.5698 77.2461 75.6636 77.1078 75.7602C72.7573 78.8062 71.9412 82.7775 70.4849 87.7251C70.4171 87.9529 70.3494 88.1807 70.2795 88.4154C70.1501 88.8524 70.0228 89.29 69.898 89.7283C69.5458 90.9136 69.1916 91.8456 68.3594 92.7734C67.6758 92.7979 67.6758 92.7979 66.9922 92.7734C66.4644 93.2053 66.101 93.6164 65.7349 94.1895C65.4297 94.5313 65.4297 94.5313 64.8872 94.5656C64.0016 94.7921 63.7167 95.3451 63.2568 96.0815C63.1665 96.2195 63.0762 96.3575 62.9832 96.4996C62.7901 96.795 62.5984 97.0912 62.4081 97.3884C62.1052 97.858 61.7958 98.3226 61.4838 98.7862C60.6283 100.057 59.777 101.324 59.0022 102.646C58.9319 102.74 58.8615 102.833 58.7891 102.93C58.6601 102.93 58.5312 102.93 58.3984 102.93C57.9642 98.9131 57.9553 94.9205 57.9682 90.8866C57.9707 89.9745 57.9709 89.0624 57.9713 88.1504C57.9725 86.4316 57.9757 84.7129 57.9797 82.9941C57.9841 81.0338 57.9862 79.0735 57.9881 77.1133C57.9922 73.0885 57.9991 69.0638 58.0078 65.0391C58.3847 64.9442 58.7616 64.8495 59.1385 64.7548C59.3484 64.7021 59.5583 64.6493 59.7745 64.595C60.3599 64.4511 60.9453 64.3252 61.5379 64.2151C67.6885 63.0291 73.7375 61.3248 79.6875 59.375C79.8608 59.3188 80.0341 59.2626 80.2127 59.2048C85.6667 57.4235 91.0231 55.0627 96.0609 52.3155C96.2315 52.2228 96.402 52.13 96.5777 52.0345C96.8866 51.8645 97.1937 51.6914 97.4988 51.5147C98.3495 51.042 98.842 50.8327 99.8047 51.1719Z" fill="#FCFDFD"/>
<path d="M64.8438 95.5078C65.1052 95.6607 65.3654 95.8157 65.625 95.9717C65.8425 96.1008 65.8425 96.1008 66.0645 96.2326C66.2336 96.3572 66.2336 96.3572 66.4062 96.4844C66.4062 96.6133 66.4062 96.7422 66.4062 96.875C66.5185 96.9282 66.6308 96.9813 66.7464 97.0361C67.1904 97.2671 67.5853 97.5251 67.9947 97.8127C68.2285 97.9764 68.2285 97.9764 68.4671 98.1435C68.7159 98.3192 68.7159 98.3192 68.9697 98.4985C69.1408 98.6192 69.3118 98.7399 69.488 98.8643C69.8446 99.1163 70.2011 99.3686 70.5573 99.6211C71.0785 99.9892 71.602 100.354 72.126 100.718C72.4453 100.942 72.7644 101.167 73.0835 101.392C73.3096 101.547 73.3096 101.547 73.5402 101.706C73.7473 101.853 73.7473 101.853 73.9586 102.003C74.08 102.088 74.2014 102.173 74.3265 102.261C74.6756 102.604 74.7492 102.837 74.8047 103.32C74.6002 103.757 74.6002 103.757 74.2676 104.248C74.1412 104.437 74.0148 104.626 73.8846 104.821C73.7359 105.037 73.5868 105.253 73.4375 105.469C73.2681 105.715 73.0987 105.962 72.9294 106.208C72.656 106.605 72.3824 107.002 72.1079 107.399C71.4465 108.356 70.8092 109.326 70.1849 110.308C69.6495 111.149 69.0986 111.978 68.5425 112.805C66.8832 115.183 66.8832 115.183 65.625 117.773C66.147 117.475 66.6033 117.186 67.0532 116.785C67.7217 116.303 68.3471 116.167 69.1406 116.016C69.3806 115.967 69.6205 115.919 69.8677 115.869C71.167 115.612 72.4565 115.391 73.7778 115.282C74.228 115.233 74.6555 115.149 75.0977 115.051C75.9838 114.863 76.8707 114.763 77.771 114.673C79.4157 114.507 81.0334 114.234 82.6578 113.93C83.5683 113.762 84.4207 113.625 85.3516 113.672C85.2093 114.324 84.9808 114.912 84.7237 115.527C84.6379 115.733 84.5522 115.938 84.4639 116.15C84.3741 116.363 84.2844 116.577 84.1919 116.797C84.1029 117.01 84.0139 117.224 83.9222 117.444C83.2515 119.046 83.2515 119.046 82.9863 119.563C82.7105 120.133 82.694 120.47 82.8125 121.094C83.239 121.526 83.7337 121.821 84.2529 122.131C84.4576 122.261 84.4576 122.261 84.6664 122.393C85.1475 122.695 85.6246 122.988 86.1328 123.242C85.7822 124.191 84.9557 124.742 84.1953 125.36C83.8338 125.66 83.8338 125.66 83.3984 126.172C83.3742 127.009 83.8591 127.737 84.2407 128.467C84.96 129.872 85.6484 131.29 86.3281 132.715C86.957 134.03 87.588 135.344 88.2446 136.646C90.081 140.292 91.8468 143.973 93.5303 147.693C93.5898 147.824 93.6493 147.955 93.7106 148.09C93.8787 148.461 94.0457 148.832 94.2123 149.203C94.3072 149.414 94.4021 149.625 94.4999 149.842C94.6845 150.289 94.8242 150.7 94.9219 151.172C89.159 149.407 83.3741 144.738 78.9932 140.677C78.5796 140.294 78.1605 139.92 77.7344 139.551C74.8887 137.067 74.8887 137.067 73.7503 135.713C73.4418 135.357 73.1178 135.032 72.7783 134.705C69.8939 131.846 67.4846 128.293 65.4297 124.805C65.3569 124.684 65.284 124.564 65.209 124.44C61.5824 118.431 59.0642 111.116 58.5938 104.102C58.7227 104.102 58.8516 104.102 58.9844 104.102C59.0362 103.991 59.0881 103.88 59.1415 103.766C59.3897 103.292 59.6739 102.876 59.9854 102.441C60.9611 101.063 61.8899 99.6546 62.8174 98.2437C62.9045 98.1117 62.9917 97.9797 63.0815 97.8437C63.252 97.5855 63.4219 97.3269 63.5912 97.0679C63.9682 96.4978 64.3293 95.9623 64.8438 95.5078Z" fill="#044263"/>
<path d="M133.789 95.7031C134.681 96.5224 135.327 97.4457 135.999 98.4497C136.109 98.6138 136.22 98.778 136.334 98.9471C136.556 99.2754 136.777 99.604 136.997 99.9329C137.269 100.337 137.542 100.74 137.817 101.141C137.958 101.349 138.099 101.556 138.245 101.77C138.367 101.95 138.489 102.129 138.615 102.314C138.867 102.734 138.867 102.734 138.867 103.125C138.996 103.125 139.125 103.125 139.258 103.125C139.449 104.282 139.434 105.245 139.233 106.396C139.206 106.557 139.179 106.718 139.152 106.883C137.858 114.256 135.039 121.634 130.664 127.734C130.567 127.871 130.469 128.008 130.369 128.148C128.868 130.246 127.306 132.259 125.586 134.18C125.419 134.369 125.252 134.557 125.079 134.752C122.874 137.203 120.569 139.569 117.969 141.602C117.746 141.787 117.523 141.974 117.301 142.161C113.388 145.442 109.088 148.35 104.492 150.586C104.761 149.129 105.445 147.825 106.055 146.484C106.137 146.302 106.22 146.12 106.305 145.933C107.914 142.399 109.611 138.91 111.319 135.423C111.401 135.256 111.483 135.089 111.567 134.917C111.648 134.753 111.728 134.588 111.811 134.418C112.599 132.809 113.374 131.194 114.14 129.574C114.502 128.815 114.865 128.079 115.308 127.364C115.666 126.813 115.666 126.813 115.588 126.366C115.394 125.888 115.177 125.702 114.77 125.388C114.638 125.284 114.507 125.181 114.371 125.075C114.233 124.97 114.095 124.864 113.953 124.756C113.744 124.593 113.744 124.593 113.532 124.428C113.189 124.161 112.845 123.896 112.5 123.633C113.08 123.024 113.747 122.592 114.453 122.144C114.576 122.064 114.699 121.984 114.825 121.902C115.348 121.568 115.815 121.291 116.406 121.094C116.338 120.941 116.27 120.789 116.2 120.631C115.946 120.06 115.691 119.488 115.437 118.916C115.327 118.669 115.218 118.423 115.108 118.177C114.949 117.82 114.791 117.464 114.632 117.107C114.537 116.894 114.442 116.68 114.344 116.46C114.251 116.249 114.158 116.038 114.063 115.82C114.008 115.703 113.953 115.585 113.897 115.464C113.597 114.803 113.477 114.412 113.477 113.672C114.38 113.609 115.124 113.726 116.003 113.95C117.326 114.263 118.631 114.416 119.983 114.539C122.338 114.772 124.66 115.1 126.987 115.526C127.543 115.626 128.1 115.717 128.658 115.807C129.009 115.868 129.361 115.93 129.712 115.991C129.87 116.016 130.029 116.04 130.192 116.065C131.355 116.281 131.831 116.704 132.617 117.578C132.811 117.643 133.004 117.707 133.203 117.773C132.789 116.635 132.17 115.703 131.49 114.704C131.057 114.066 130.639 113.419 130.225 112.769C128.929 110.742 127.606 108.73 126.221 106.763C126.119 106.618 126.017 106.473 125.912 106.323C125.66 105.964 125.405 105.606 125.15 105.249C125.004 105.04 124.857 104.83 124.707 104.614C124.572 104.423 124.437 104.233 124.298 104.036C124.023 103.516 124.023 103.516 124.041 103.093C124.823 101.516 127.141 100.327 128.535 99.2977C128.854 99.0619 129.172 98.8246 129.49 98.587C130.88 97.5572 132.326 96.6255 133.789 95.7031Z" fill="#044263"/>
<path d="M117.969 59.375C119.238 59.7074 120.489 60.0742 121.734 60.4885C126.418 62.0423 131.194 63.1527 136.025 64.138C136.178 64.1694 136.331 64.2007 136.489 64.233C136.774 64.2911 137.059 64.3488 137.345 64.4058C138.191 64.578 139.014 64.7982 139.844 65.0391C139.848 69.6502 139.852 74.2613 139.854 78.8724C139.855 81.0135 139.856 83.1545 139.858 85.2955C139.86 87.1617 139.862 89.0279 139.862 90.894C139.862 91.8821 139.863 92.8702 139.864 93.8582C139.866 94.7885 139.866 95.7188 139.866 96.6491C139.866 96.9902 139.866 97.3314 139.867 97.6725C139.868 98.139 139.868 98.6055 139.867 99.072C139.868 99.2064 139.868 99.3407 139.869 99.4791C139.866 100.325 139.784 101.121 139.648 101.953C138.881 101.235 138.311 100.491 137.744 99.6094C137.574 99.3496 137.404 99.0899 137.234 98.8304C137.148 98.7001 137.063 98.5698 136.975 98.4355C136.577 97.8321 136.167 97.237 135.754 96.6431C135.616 96.4429 135.477 96.2428 135.334 96.0365C135.211 95.8621 135.088 95.6876 134.961 95.5078C134.859 95.3542 134.758 95.2007 134.653 95.0424C134.561 94.9382 134.469 94.834 134.375 94.7266C134.194 94.7467 134.012 94.7668 133.826 94.7876C133.62 94.7675 133.415 94.7473 133.203 94.7266C132.87 94.2956 132.605 93.8399 132.326 93.3723C132.048 92.9078 132.048 92.9078 131.421 92.7734C131.236 92.7734 131.05 92.7734 130.859 92.7734C130.444 92.7368 130.444 92.7368 130.078 92.5781C129.297 91.6018 129.013 90.5895 128.699 89.3921C128.348 88.095 127.975 86.8178 127.539 85.5469C127.417 85.1841 127.296 84.8213 127.174 84.4584C126.991 83.9116 126.805 83.3653 126.62 82.8191C126.524 82.5375 126.43 82.2557 126.335 81.9737C126.197 81.5606 126.057 81.1482 125.916 80.7358C125.834 80.4923 125.752 80.2488 125.667 79.9979C125.271 78.9932 124.851 78.0049 123.952 77.3521C123.829 77.2607 123.705 77.1693 123.578 77.0751C123.447 76.9825 123.316 76.8899 123.181 76.7944C123.045 76.6953 122.909 76.5961 122.768 76.4939C120.36 74.7232 120.36 74.7232 117.773 73.2422C117.772 73.1035 117.77 72.9648 117.768 72.8219C117.757 72.1847 117.741 71.5477 117.725 70.9106C117.722 70.6925 117.719 70.4743 117.716 70.2496C117.662 68.3979 117.276 67.0199 116.016 65.625C116.204 65.2453 116.394 64.8674 116.595 64.4943C117.467 62.8475 117.841 61.2259 117.969 59.375Z" fill="#FDFDFD"/>
<path d="M109.097 58.786C110.296 59.1416 111.429 59.2202 112.671 59.2285C112.82 59.2325 112.969 59.2366 113.123 59.2407C114.525 59.2502 115.751 58.9514 116.797 57.9712C116.91 57.8677 117.022 57.7642 117.139 57.6576C117.219 57.5798 117.3 57.502 117.383 57.4219C117.576 57.5186 117.576 57.5186 117.773 57.6172C117.947 62.9055 117.947 62.9055 116.553 64.8804C116.44 64.9972 116.327 65.114 116.211 65.2344C116.436 65.7214 116.684 66.1345 116.992 66.5771C117.614 67.5492 117.823 68.3939 117.812 69.5419C117.81 69.8667 117.81 69.8667 117.808 70.1981C117.803 70.5327 117.803 70.5327 117.798 70.874C117.796 71.1016 117.794 71.3292 117.793 71.5637C117.788 72.1233 117.782 72.6827 117.773 73.2422C117.924 73.3004 118.074 73.3586 118.229 73.4186C119.192 73.8147 120.032 74.4291 120.898 75C121.045 75.0921 121.191 75.1843 121.342 75.2792C121.716 75.5249 121.716 75.5249 122.266 75.9766C122.266 76.2344 122.266 76.4922 122.266 76.7578C121.655 76.6368 121.231 76.4332 120.716 76.0872C120.573 75.9926 120.43 75.8981 120.283 75.8007C120.136 75.7016 119.988 75.6026 119.836 75.5005C119.544 75.3046 119.252 75.1095 118.958 74.9153C118.829 74.8286 118.7 74.7419 118.567 74.6525C117.562 74.0578 116.709 73.9696 115.554 73.9853C115.322 73.9861 115.322 73.9861 115.085 73.987C114.594 73.9891 114.102 73.994 113.611 73.999C113.277 74.001 112.942 74.0028 112.608 74.0044C111.791 74.0087 110.973 74.0154 110.156 74.0234C110.221 73.8301 110.285 73.6367 110.352 73.4375C110.61 73.3648 110.871 73.2996 111.133 73.2422C111.197 73.1133 111.262 72.9844 111.328 72.8516C111.844 72.8516 112.359 72.8516 112.891 72.8516C112.709 72.5376 112.525 72.2244 112.341 71.9116C112.239 71.7371 112.137 71.5627 112.032 71.3829C111.654 70.7774 111.654 70.7774 111.133 70.3125C110.273 70.3672 109.469 70.747 108.667 71.0449C107.415 71.4978 106.157 71.8891 104.871 72.229C104.644 72.2895 104.644 72.2895 104.414 72.3513C99.3869 73.6452 93.4387 72.9193 88.8046 70.5696C88.2908 70.2694 88.2908 70.2694 87.6953 70.3125C87.369 70.727 87.369 70.727 87.085 71.2524C86.9837 71.4269 86.8825 71.6014 86.7783 71.7812C86.5044 72.2702 86.5044 72.2702 86.3281 72.8516C86.5376 72.8636 86.7471 72.8757 86.9629 72.8882C88.1324 73.027 89.1705 73.5429 90.2344 74.0234C90.041 74.1201 90.041 74.1201 89.8438 74.2188C89.7471 74.5088 89.7471 74.5088 89.6484 74.8047C89.5032 74.7342 89.3579 74.6637 89.2082 74.5911C87.6605 73.9332 86.2907 73.7316 84.6069 73.7305C84.4183 73.7293 84.2298 73.7282 84.0354 73.727C82.9434 73.7458 82.0445 73.8935 81.0302 74.3048C80.6641 74.4141 80.6641 74.4141 80.0659 74.2554C79.941 74.1788 79.8162 74.1023 79.6875 74.0234C80.5908 73.2422 80.5908 73.2422 81.25 73.2422C81.2459 73.1104 81.2418 72.9786 81.2376 72.8429C81.2212 72.2355 81.2111 71.6281 81.2012 71.0205C81.1946 70.8133 81.1881 70.6061 81.1813 70.3926C81.1566 68.3802 81.6956 66.7706 83.0078 65.2344C83.5571 64.9536 83.5571 64.9536 83.9844 64.8438C83.9798 64.7327 83.9753 64.6217 83.9706 64.5073C83.9321 62.8583 84.2044 61.7528 85.3516 60.5469C85.416 60.5469 85.4805 60.5469 85.5469 60.5469C85.6113 61.3203 85.6758 62.0938 85.7422 62.8906C85.8993 62.6288 86.0564 62.3669 86.2183 62.0972C88.139 59.2516 91.908 57.8628 95.137 57.2121C99.8555 56.3836 104.599 57.3524 109.097 58.786Z" fill="#032943"/>
<path d="M101.418 84.1743C102.677 84.9183 103.652 86.7385 104.102 88.0859C104.291 88.1464 104.48 88.2068 104.675 88.269C105.273 88.4766 105.273 88.4766 105.542 88.8916C105.602 89.0729 105.602 89.0729 105.664 89.2578C105.447 89.3424 105.229 89.427 105.005 89.5142C104.263 89.785 104.263 89.785 103.906 90.4297C103.825 91.1708 103.779 91.6134 104.211 92.2363C105.532 93.1845 107.14 93.4716 108.691 93.8599C109.157 93.978 109.623 94.0962 110.089 94.2146C110.305 94.2693 110.521 94.324 110.743 94.3803C111.398 94.5492 112.047 94.7302 112.695 94.9219C112.633 96.3015 112.411 97.6367 112.134 98.9868C112.102 99.1454 112.071 99.3039 112.038 99.4673C111.531 101.859 110.215 102.939 108.232 104.244C108.074 104.346 107.915 104.448 107.751 104.553C107.5 104.716 107.5 104.716 107.243 104.882C106.071 105.627 104.877 106.319 103.65 106.97C103.425 107.09 103.425 107.09 103.195 107.213C101.281 108.2 99.354 108.565 97.2267 108.053C94.1295 106.953 88.6331 104.188 87.0056 101.211C86.5406 100.054 86.3982 98.7936 86.1938 97.5708C86.1496 97.3135 86.1052 97.0563 86.0607 96.7991C85.953 96.1736 85.8469 95.5479 85.7422 94.9219C86.6121 94.6603 87.4866 94.438 88.3705 94.2284C88.604 94.1723 88.8375 94.1163 89.0781 94.0586C89.5615 93.943 90.0452 93.8291 90.5293 93.7168C91.9461 93.3735 93.2971 92.9885 94.5312 92.1875C94.8444 91.5612 94.8489 90.9119 94.7266 90.2344C94.2959 89.7531 94.2959 89.7531 93.75 89.4531C93.5566 89.3242 93.3633 89.1953 93.1641 89.0625C93.2728 88.9955 93.3816 88.9286 93.4937 88.8596C94.8026 87.9618 95.3938 86.9927 96.0899 85.6064C97.2801 83.6589 99.374 83.2853 101.418 84.1743Z" fill="#FAD7B7"/>
<path d="M113.672 95.3125C114.561 95.5837 115.351 95.9447 116.174 96.3745C117.479 97.0415 118.737 97.526 120.166 97.8394C120.915 98.0516 121.313 98.301 121.875 98.8281C121.807 98.9691 121.738 99.1101 121.667 99.2554C121.448 99.9135 121.438 100.132 121.68 100.781C121.968 101.168 122.266 101.539 122.583 101.903C122.852 102.344 122.852 102.344 122.923 102.989C123.082 103.915 123.474 104.406 124.048 105.127C124.246 105.386 124.444 105.646 124.641 105.906C124.737 106.032 124.833 106.157 124.932 106.287C125.273 106.744 125.578 107.218 125.879 107.703C126.428 108.588 127.008 109.447 127.6 110.303C128.342 111.377 129.081 112.454 129.81 113.538C129.934 113.722 129.934 113.722 130.062 113.909C130.399 114.414 130.666 114.85 130.859 115.43C129.759 115.257 128.663 115.071 127.57 114.853C125.811 114.503 124.07 114.197 122.284 114.021C120.576 113.846 118.887 113.564 117.194 113.279C116.469 113.157 115.744 113.048 115.014 112.96C112.67 112.658 112.67 112.658 111.865 111.719C111.77 111.58 111.675 111.441 111.577 111.298C111.336 110.893 111.336 110.893 110.815 110.645C110.201 110.256 109.949 109.772 109.592 109.148C109.377 108.76 109.377 108.76 108.984 108.398C108.719 107.234 108.684 105.844 108.984 104.688C109.651 103.896 110.45 103.46 111.328 102.93C113.063 101.221 113.236 97.6097 113.672 95.3125Z" fill="#FBFBFC"/>
<path d="M84.9609 95.3125C85.0007 95.531 85.0007 95.531 85.0413 95.7539C85.1636 96.4208 85.2881 97.0874 85.4126 97.7539C85.4543 97.983 85.4959 98.2121 85.5389 98.4482C85.8363 100.509 85.8363 100.509 86.835 102.262C87.1094 102.539 87.1094 102.539 87.1094 102.93C87.2191 102.985 87.3289 103.039 87.442 103.096C87.5901 103.17 87.7381 103.244 87.8906 103.32C88.0427 103.386 88.1948 103.452 88.3514 103.52C88.9472 103.857 89.2599 104.117 89.6484 104.688C90.0084 106.154 89.9471 107.839 89.3921 109.241C88.7843 110.163 88.005 110.846 87.0888 111.455C86.6969 111.71 86.6969 111.71 86.3899 112.117C85.7238 112.681 85.0509 112.75 84.2041 112.891C83.9363 112.938 83.9363 112.938 83.663 112.987C81.883 113.294 80.092 113.524 78.3008 113.755C76.3944 114.002 74.4945 114.279 72.5952 114.575C72.4632 114.596 72.3313 114.616 72.1953 114.637C70.774 114.857 69.3682 115.097 67.9688 115.43C68.2444 114.662 68.6082 114.039 69.0674 113.367C69.2076 113.16 69.3479 112.953 69.4923 112.74C69.705 112.428 69.705 112.428 69.9219 112.109C70.1704 111.735 70.4187 111.361 70.6665 110.986C71.2776 110.07 71.8975 109.16 72.522 108.252C72.6114 108.122 72.7008 107.992 72.793 107.858C73.2737 107.16 73.7564 106.463 74.2409 105.767C74.3394 105.625 74.4379 105.483 74.5393 105.337C74.7287 105.064 74.9187 104.792 75.1093 104.519C75.5589 103.871 75.8939 103.329 76.0551 102.55C76.1893 102.088 76.3963 101.783 76.6724 101.392C77.2244 100.536 77.2599 99.9434 77.0508 98.9502C77.0024 98.7931 77.0024 98.7931 76.9531 98.6328C77.9089 98.0169 78.7778 97.7091 79.8759 97.4297C81.3498 97.0218 83.5866 95.3125 84.9609 95.3125Z" fill="#FBFBFC"/>
<path d="M110.938 111.914C112.042 112.796 112.393 113.938 112.878 115.234C113.048 115.675 113.218 116.115 113.389 116.554C113.511 116.87 113.511 116.87 113.636 117.192C114 118.106 114.416 118.989 114.851 119.872C115.039 120.312 115.039 120.312 115.039 120.898C114.716 121.15 114.716 121.15 114.27 121.398C114.111 121.49 113.953 121.581 113.789 121.675C113.451 121.865 113.112 122.054 112.773 122.243C112.615 122.335 112.456 122.427 112.292 122.521C112.145 122.603 111.998 122.686 111.846 122.77C111.74 122.862 111.633 122.953 111.523 123.047C111.523 123.305 111.523 123.562 111.523 123.828C111.926 124.229 112.314 124.575 112.756 124.927C112.873 125.022 112.989 125.118 113.108 125.217C113.608 125.626 114.111 126.009 114.648 126.367C114.355 127.316 113.975 128.195 113.55 129.089C113.447 129.308 113.447 129.308 113.342 129.531C112.892 130.473 112.415 131.396 111.914 132.312C111.267 133.497 110.703 134.707 110.167 135.946C109.598 137.259 108.992 138.553 108.384 139.848C108.093 140.469 107.803 141.091 107.513 141.713C107.398 141.959 107.283 142.205 107.168 142.451C107.111 142.572 107.055 142.694 106.996 142.819C106.881 143.066 106.766 143.313 106.65 143.56C106.366 144.168 106.082 144.777 105.798 145.386C105.578 145.858 105.358 146.33 105.137 146.801C105.033 147.024 104.929 147.246 104.822 147.475C104.73 147.672 104.637 147.869 104.543 148.071C104.189 148.879 103.868 149.716 103.711 150.586C103.775 150.715 103.84 150.844 103.906 150.977C103.459 151.205 103.011 151.433 102.563 151.66C102.436 151.725 102.309 151.791 102.178 151.858C101.216 152.344 101.216 152.344 100.781 152.344C100.914 150.752 101.254 149.223 101.611 147.668C101.642 147.534 101.672 147.4 101.704 147.262C102.094 145.546 102.512 143.842 103.001 142.151C103.306 141.094 103.542 140.031 103.764 138.953C104.128 137.238 104.586 135.544 105.028 133.847C105.088 133.614 105.149 133.382 105.211 133.142C105.332 132.679 105.453 132.216 105.574 131.754C105.888 130.549 106.187 129.343 106.445 128.125C106.52 127.777 106.595 127.429 106.67 127.081C106.708 126.9 106.747 126.719 106.787 126.533C107.187 124.672 107.604 122.821 108.082 120.979C108.23 120.402 108.376 119.824 108.521 119.247C110.192 112.66 110.192 112.66 110.938 111.914Z" fill="#044667"/>
<path d="M87.8906 111.914C89.1966 113.873 89.537 116.814 90.1123 119.08C90.1832 119.358 90.1832 119.358 90.2556 119.641C91.0073 122.59 91.7181 125.546 92.3828 128.516C92.8962 130.804 92.8962 130.804 93.5425 133.057C94.0489 134.649 94.4094 136.274 94.7874 137.9C95.3585 140.349 95.9353 142.797 96.582 145.227C96.9679 146.678 97.3471 148.13 97.7173 149.585C97.7694 149.786 97.8215 149.987 97.8752 150.194C97.9231 150.383 97.9709 150.573 98.0202 150.768C98.0631 150.935 98.1059 151.103 98.1501 151.276C98.2451 151.773 98.2586 152.229 98.2422 152.734C97.252 152.607 96.4024 152.177 95.5078 151.758C95.6367 151.693 95.7656 151.629 95.8984 151.562C93.727 146.592 91.5331 141.63 89.1659 136.749C88.886 136.172 88.6071 135.594 88.3285 135.016C88.0722 134.484 87.8156 133.952 87.5589 133.42C87.4309 133.155 87.3029 132.89 87.1749 132.624C86.3033 130.816 86.3033 130.816 85.3966 129.025C85.3211 128.879 85.2456 128.733 85.1678 128.583C84.979 128.221 84.787 127.86 84.5947 127.5C84.375 126.953 84.375 126.953 84.3712 126.54C84.6735 125.981 85.1077 125.68 85.6079 125.293C86.2798 124.769 86.9105 124.249 87.5 123.633C87.2305 122.824 86.6687 122.591 85.9741 122.168C85.7285 122.016 85.4831 121.863 85.2379 121.71C85.1224 121.638 85.0069 121.567 84.888 121.493C84.5066 121.248 84.1452 120.983 83.7891 120.703C84.4423 118.675 85.1928 116.692 86.0962 114.761C86.2494 114.429 86.3961 114.093 86.5356 113.754C87.1264 112.323 87.1264 112.323 87.8906 111.914Z" fill="#044567"/>
<path d="M89.0625 74.4141C89.3746 74.5582 89.6872 74.7013 90.0002 74.8436C90.6684 75.1505 91.3356 75.4593 91.9991 75.7767C92.1388 75.8433 92.2786 75.9099 92.4225 75.9786C92.7734 76.1719 92.7734 76.1719 93.1641 76.5625C93.0908 77.0752 93.0908 77.0752 92.9688 77.5391C92.6201 77.668 92.6201 77.668 92.1875 77.7344C91.8587 77.5383 91.8587 77.5383 91.5161 77.2339C89.3997 75.5344 87.0387 74.9834 84.375 75.1953C82.0543 75.6769 79.8593 76.9243 78.5156 78.9062C77.3424 80.9431 76.6879 82.7851 76.9531 85.1562C77.1407 85.7844 77.3518 86.3914 77.5792 87.0053C78.3079 89.0447 78.002 91.0176 77.1484 92.9687C78.2012 92.1207 78.509 91.111 78.9062 89.8437C78.9873 89.9125 79.0684 89.9812 79.1519 90.052C81.7822 92.1596 84.3683 92.8217 87.6953 92.5781C89.3562 92.2719 90.7514 91.5467 91.9006 90.3007C92.1875 90.0391 92.1875 90.0391 92.7612 89.9658C93.4225 90.0468 93.6967 90.1299 94.1406 90.625C94.2505 91.1133 94.2505 91.1133 94.1406 91.6016C93.3769 92.1656 92.5436 92.4009 91.6382 92.6392C91.4876 92.6805 91.3369 92.7218 91.1818 92.7644C90.2825 93.0078 89.3801 93.2277 88.4712 93.4326C86.4002 93.9065 84.6403 94.3863 82.843 95.5292C81.4157 96.3841 79.8122 96.8134 78.1982 97.168C77.428 97.3456 77.1938 97.4166 76.6113 97.9858C76.5308 98.1349 76.4502 98.2839 76.3672 98.4375C75.3585 98.1185 74.5925 97.4984 73.7549 96.875C72.1817 95.7199 70.579 94.6221 68.9453 93.5547C69.0901 93.3505 69.2348 93.1463 69.384 92.9359C70.072 91.8313 70.3695 90.6371 70.7153 89.3921C70.8654 88.8712 71.0182 88.3511 71.1716 87.8311C71.2315 87.6277 71.2315 87.6277 71.2926 87.4201C71.7437 85.8992 72.2309 84.3908 72.7365 82.8872C72.8368 82.5876 72.9359 82.2877 73.0337 81.9874C73.8112 79.6056 74.648 78.2111 76.7334 76.7822C76.8766 76.6827 77.0198 76.5832 77.1673 76.4806C80.7382 74.038 84.8275 72.248 89.0625 74.4141Z" fill="#F8D7B8"/>
<path d="M113.418 73.7597C113.715 73.7565 114.011 73.7512 114.308 73.7437C116.125 73.698 117.585 73.7552 119.141 74.8047C119.282 74.8943 119.423 74.984 119.569 75.0764C120.429 75.6383 121.255 76.2511 122.079 76.8646C122.406 77.1075 122.736 77.3452 123.067 77.5818C124.586 78.7767 125.047 80.243 125.586 82.0312C125.66 82.2659 125.733 82.5005 125.809 82.7423C125.936 83.1512 126.061 83.5611 126.18 83.9722C126.319 84.4147 126.474 84.8519 126.64 85.2852C127.024 86.2962 127.328 87.3305 127.637 88.3667C128.238 90.9271 128.238 90.9271 129.492 93.1641C129.197 93.9826 128.611 94.3462 127.917 94.812C126.766 95.6081 125.645 96.4365 124.536 97.29C124.389 97.4034 124.241 97.5168 124.089 97.6337C123.741 97.9013 123.394 98.1692 123.047 98.4375C122.632 98.2383 122.288 98.0662 121.939 97.7623C121.244 97.3018 120.477 97.1503 119.678 96.936C118.342 96.5595 117.111 96.1165 115.881 95.4712C115.687 95.3694 115.687 95.3694 115.489 95.2656C115.366 95.2008 115.243 95.1359 115.115 95.0691C113.719 94.3466 112.27 94.0388 110.746 93.6895C109.579 93.4176 108.426 93.1078 107.275 92.7734C107.11 92.7272 106.945 92.6809 106.775 92.6332C105.859 92.3613 105.202 92.0761 104.492 91.4062C104.586 90.5156 104.586 90.5156 105.005 90.1611C105.7 89.9782 106.14 90.0457 106.836 90.2344C107.189 90.4978 107.501 90.7887 107.824 91.0889C109.301 92.3255 111.263 92.8781 113.168 92.8215C115.93 92.5578 117.785 91.5266 119.922 89.8437C119.986 90.0366 120.049 90.2295 120.115 90.4282C120.201 90.681 120.287 90.9338 120.374 91.1865C120.415 91.3137 120.457 91.4408 120.5 91.5718C120.744 92.2783 120.844 92.5418 121.484 92.9687C121.442 92.829 121.4 92.6893 121.356 92.5453C120.766 90.4349 120.572 88.5777 121.493 86.5478C122.327 84.6965 121.944 82.3136 121.289 80.4687C120.21 78.1463 118.572 76.7239 116.211 75.7812C113.769 74.9431 111.554 74.9315 109.18 75.9766C108.243 76.4647 107.364 76.9553 106.641 77.7344C106.262 77.5879 106.262 77.5879 105.859 77.3437C105.737 76.9379 105.737 76.9379 105.664 76.5625C107.153 75.5702 108.748 74.8087 110.352 74.0234C111.235 73.5817 112.436 73.7675 113.418 73.7597Z" fill="#F7D7B8"/>
<path d="M87.6953 70.1172C88.5267 70.2471 89.2305 70.5315 90.0024 70.8618C91.5411 71.4985 93.0966 71.9258 94.7266 72.2656C94.889 72.3005 95.0515 72.3355 95.2189 72.3714C96.5402 72.6364 97.8116 72.725 99.1577 72.7173C99.4656 72.7156 99.4656 72.7156 99.7797 72.7139C103.311 72.6593 106.978 71.729 110.181 70.2278C110.649 70.0863 110.877 70.1276 111.328 70.3125C112.139 71.0168 112.635 71.8043 112.891 72.8516C112.748 72.8677 112.606 72.8839 112.459 72.9005C110.897 73.1142 109.632 73.5766 108.228 74.2798C108.034 74.3723 107.84 74.4648 107.64 74.5602C106.611 75.0632 105.695 75.552 104.883 76.3672C104.786 77.0617 104.857 77.4616 105.078 78.125C101.34 78.125 97.6016 78.125 93.75 78.125C93.8145 77.5449 93.8789 76.9648 93.9453 76.3672C93.4859 75.6837 92.8755 75.3997 92.1379 75.0603C91.839 74.9226 91.839 74.9226 91.534 74.7822C91.3267 74.6889 91.1194 74.5956 90.9058 74.4995C90.6027 74.3585 90.6027 74.3585 90.2935 74.2146C88.9962 73.624 87.7153 73.1792 86.3281 72.8516C86.4647 72.0733 86.6656 71.5851 87.1216 70.9351C87.2286 70.7807 87.3356 70.6264 87.4458 70.4674C87.5693 70.294 87.5693 70.294 87.6953 70.1172Z" fill="#F9D8B8"/>
<path d="M89.2578 78.9063C89.6187 79.232 89.6187 79.232 89.8438 79.4922C89.5194 80.3021 88.9337 80.8725 88.3423 81.4941C88.1303 81.7201 87.9184 81.9462 87.7068 82.1724C87.6043 82.2817 87.5018 82.391 87.3962 82.5036C86.9171 83.0196 86.4563 83.5508 85.997 84.0843C85.7908 84.3196 85.5728 84.5444 85.3516 84.7656C84.9854 84.7534 84.9854 84.7534 84.5703 84.5703C84.3026 84.2508 84.0429 83.9245 83.7891 83.5938C83.3245 83.1242 83.3245 83.1242 82.8125 82.8125C82.3004 82.8276 82.0891 82.9659 81.6773 83.2642C81.405 83.575 81.405 83.575 81.4789 83.9455C81.9874 85.296 83.6519 86.8805 84.9609 87.5C86.2439 87.3585 87.1206 86.1246 87.9051 85.2043C88.3233 84.7166 88.753 84.2406 89.1846 83.7647C89.6762 83.2219 90.1555 82.6764 90.6128 82.1045C90.7457 81.9514 90.8787 81.7983 91.0156 81.6406C91.1445 81.6406 91.2734 81.6406 91.4063 81.6406C91.9592 82.8847 92.0233 84.334 91.6626 85.6438C91.4761 86.0921 91.2648 86.4975 91.0156 86.9141C90.8948 87.1191 90.8948 87.1191 90.7715 87.3283C89.9347 88.586 88.7306 89.3685 87.3047 89.8438C85.2921 90.0261 83.6861 89.9758 82.0313 88.6719C80.7523 87.4848 80.0004 86.216 79.8363 84.4643C79.7873 82.7191 80.1855 81.3776 81.2988 80.0171C83.5694 77.6156 86.4073 77.366 89.2578 78.9063Z" fill="#F8FAFA"/>
<path d="M116.016 78.7109C116.282 78.8986 116.544 79.0917 116.797 79.2969C116.683 79.9161 116.51 80.2454 116.075 80.6976C115.968 80.8106 115.861 80.9236 115.751 81.04C115.637 81.1576 115.523 81.2753 115.405 81.3965C115.173 81.6404 114.941 81.8846 114.709 82.1289C114.597 82.2462 114.485 82.3636 114.37 82.4844C113.885 83.0017 113.431 83.5431 112.981 84.0912C112.655 84.415 112.333 84.5818 111.914 84.7656C111.808 84.6574 111.702 84.5491 111.593 84.4376C111.453 84.2961 111.313 84.1546 111.169 84.0088C111.031 83.8683 110.893 83.7278 110.751 83.5831C110.343 83.1731 110.343 83.1731 109.766 82.8125C109.117 82.8758 108.866 82.9312 108.398 83.3984C108.455 84.1699 108.682 84.5628 109.219 85.1044C109.346 85.2325 109.474 85.3607 109.605 85.4927C109.805 85.6887 109.805 85.6887 110.01 85.8887C110.14 86.0224 110.271 86.1561 110.406 86.2938C110.534 86.4209 110.662 86.5481 110.794 86.6791C110.91 86.7946 111.027 86.9101 111.147 87.0291C111.6 87.3609 111.944 87.4454 112.5 87.5C113.677 86.8588 114.512 85.5996 115.328 84.5703C116.204 83.5271 117.187 82.5882 118.164 81.6406C118.71 82.139 118.914 82.5131 118.992 83.2642C119.043 85.1062 118.638 86.6046 117.48 88.0615C116.158 89.4182 114.635 89.8924 112.769 89.9658C111.075 89.9018 109.896 89.3751 108.63 88.269C107.295 86.8007 106.857 85.0196 106.938 83.0719C107.162 81.5103 107.965 80.3125 109.109 79.2503C111.328 77.596 113.579 77.5473 116.016 78.7109Z" fill="#F7F9F9"/>
<path d="M90.625 105.469C91.2443 105.758 91.8175 106.109 92.3976 106.469C95.0967 108.138 97.898 109.498 101.138 108.83C101.991 108.604 102.77 108.266 103.564 107.886C103.779 107.784 103.779 107.784 103.998 107.681C105.133 107.131 106.157 106.49 107.183 105.756C107.617 105.469 107.617 105.469 108.008 105.469C108.22 106.71 108.398 107.958 108.008 109.18C107.245 110.2 106.076 110.81 104.988 111.432C104.352 111.8 103.745 112.204 103.134 112.61C102.611 112.956 102.084 113.294 101.552 113.625C101.284 113.795 101.022 113.974 100.763 114.159C99.7434 114.865 99.7434 114.865 99.1158 114.766C98.9564 114.663 98.797 114.559 98.6328 114.453C98.4696 114.357 98.4696 114.357 98.3031 114.259C97.9154 114.03 97.5356 113.791 97.1558 113.55C97.0177 113.463 96.8797 113.375 96.7375 113.285C91.7855 110.145 91.7855 110.145 90.625 108.984C90.6081 108.722 90.6041 108.459 90.6059 108.196C90.6066 108.038 90.6072 107.88 90.6078 107.718C90.6095 107.551 90.6111 107.385 90.6128 107.214C90.6137 107.048 90.6146 106.881 90.6155 106.709C90.6178 106.296 90.6213 105.882 90.625 105.469Z" fill="#F8D7B9"/>
<path d="M93.9453 89.6484C94.7021 90.0146 94.7021 90.0146 94.9219 90.2344C95.0575 91.591 95.0575 91.591 94.5679 92.334C93.0712 93.3905 91.15 93.7519 89.3921 94.1772C89.188 94.228 88.984 94.2787 88.7737 94.331C87.8308 94.563 86.8972 94.7701 85.9375 94.9219C86.0799 95.8015 86.2279 96.6801 86.377 97.5586C86.417 97.8063 86.457 98.0541 86.4983 98.3093C86.8601 100.414 87.2829 101.775 89.0312 103.086C94.3323 106.977 94.3323 106.977 100.586 108.008C101.356 107.842 102.024 107.566 102.734 107.227C102.852 107.171 102.969 107.115 103.09 107.058C104.818 106.226 106.435 105.254 108.02 104.175C108.171 104.072 108.322 103.969 108.477 103.864C109.378 103.236 110.204 102.564 111.01 101.818C111.328 101.562 111.328 101.562 111.719 101.562C111.877 101.892 111.877 101.892 111.914 102.344C111.256 103.155 110.409 103.734 109.568 104.346C109.168 104.698 108.989 104.98 108.789 105.469C108.725 105.34 108.66 105.211 108.594 105.078C108.47 105.159 108.347 105.239 108.22 105.322C102.443 109.051 102.443 109.051 100.391 109.18C100.239 109.192 100.088 109.204 99.9321 109.216C96.4751 109.375 93.3516 107.391 90.625 105.469C90.3986 107.499 90.3986 107.499 91.0859 109.349C91.9293 110.163 92.9408 110.737 93.9453 111.328C94.2287 111.508 94.5113 111.688 94.7929 111.871C95.4226 112.275 96.0581 112.668 96.6988 113.055C97.3474 113.45 97.9899 113.854 98.6328 114.258C98.4395 114.354 98.4395 114.354 98.2422 114.453C98.1777 114.646 98.1133 114.84 98.0469 115.039C97.2479 114.754 96.5988 114.363 95.8969 113.889C95.7863 113.815 95.6758 113.741 95.5618 113.664C95.2096 113.428 94.8582 113.19 94.5068 112.952C94.0468 112.641 93.5864 112.331 93.1259 112.022C93.0142 111.946 92.9025 111.871 92.7874 111.794C91.753 111.099 90.7039 110.428 89.6484 109.766C89.592 109.955 89.5356 110.144 89.4775 110.339C89.2578 110.938 89.2578 110.938 88.8672 111.133C88.9095 110.995 88.9518 110.857 88.9954 110.715C89.5097 108.819 89.8804 106.635 89.4531 104.688C88.9731 103.993 88.4385 103.693 87.6953 103.32C86.1941 101.953 85.7765 100.787 85.4004 98.8281C85.3573 98.6197 85.3143 98.4112 85.2699 98.1964C85.0735 97.2153 84.9384 96.3165 84.9609 95.3125C84.7158 95.4647 84.7158 95.4647 84.4658 95.62C82.7906 96.6334 81.1723 97.2911 79.2969 97.8516C78.2015 98.1893 78.2015 98.1893 77.1484 98.6328C77.1739 98.7557 77.1993 98.8785 77.2255 99.0051C77.3856 99.9988 77.4214 100.621 76.8677 101.489C76.7057 101.713 76.5405 101.934 76.3672 102.148C76.1094 101.955 75.8516 101.762 75.5859 101.562C75.7189 101.381 75.8518 101.2 75.9888 101.013C76.1136 100.808 76.2385 100.602 76.3672 100.391C76.1057 99.6062 75.7013 99.408 75.0366 98.9258C74.8299 98.7747 74.6232 98.6237 74.4102 98.468C74.2181 98.329 74.026 98.1901 73.8281 98.0469C73.5672 97.8522 73.3066 97.6572 73.0469 97.4609C73.1113 97.2031 73.1758 96.9453 73.2422 96.6797C73.9694 96.8014 74.4336 97.1283 75.0244 97.5586C75.6728 98.0361 75.6728 98.0361 76.3672 98.4375C76.4518 98.2562 76.4518 98.2562 76.5381 98.0713C76.7971 97.582 76.9949 97.3186 77.5259 97.1354C77.6783 97.0971 77.8307 97.0587 77.9877 97.0192C78.1576 96.9746 78.3275 96.93 78.5025 96.8841C78.6841 96.8368 78.8657 96.7895 79.0527 96.7407C80.9646 96.2206 82.6059 95.5248 84.3207 94.5318C85.4868 93.894 86.6953 93.6431 87.9883 93.3716C91.1562 92.9017 91.1562 92.9017 93.9453 91.6016C93.9532 91.2761 93.9537 90.9504 93.9453 90.625C93.5586 90.4316 93.1719 90.2383 92.7734 90.0391C93.5059 89.8193 93.5059 89.8193 93.9453 90.0391C93.9453 89.9102 93.9453 89.7813 93.9453 89.6484Z" fill="#122740"/>
<path d="M80.6641 74.2188C80.0008 74.96 79.2503 75.4127 78.4058 75.9155C75.5441 77.6707 74.1299 79.199 73.0957 82.4303C72.9961 82.7366 72.9961 82.7366 72.8945 83.049C72.6837 83.6982 72.4747 84.3479 72.2656 84.9976C72.1254 85.4301 71.985 85.8625 71.8445 86.2949C71.1294 88.4761 71.1294 88.4761 70.459 90.6713C70.1412 91.764 69.8562 92.6603 69.1406 93.5547C69.3199 93.668 69.4991 93.7813 69.6838 93.898C70.9726 94.7168 72.2323 95.5443 73.4375 96.4844C73.373 96.8066 73.3086 97.1289 73.2422 97.4609C73.4 97.5788 73.5579 97.6966 73.7206 97.818C73.9314 97.9757 74.1422 98.1333 74.353 98.291C74.5592 98.4451 74.7654 98.5992 74.9779 98.7579C75.5133 99.1637 76.0402 99.5775 76.5625 100C76.2888 100.871 75.8466 101.327 75.1953 101.953C73.3294 100.692 71.4953 99.3969 69.6928 98.0463C68.8105 97.3887 67.9193 96.7884 66.98 96.2158C66.3127 95.7772 65.878 95.469 65.6128 94.7021C65.625 93.9453 65.625 93.9453 66.0034 93.2739C66.7827 92.6219 67.371 92.5781 68.3594 92.5781C69.2631 91.5159 69.5481 90.2203 69.9341 88.9038C70.0871 88.3976 70.2407 87.8915 70.3949 87.3856C70.4349 87.2538 70.4749 87.122 70.5162 86.9863C70.9569 85.5402 71.4198 84.1015 71.8933 82.6659C71.9862 82.3831 72.0785 82.1001 72.1701 81.8169C72.2991 81.418 72.4305 81.02 72.5624 80.6221C72.6371 80.3943 72.7119 80.1664 72.7889 79.9317C73.6729 77.7567 75.5894 76.5617 77.4658 75.293C77.6446 75.1671 77.8233 75.0412 78.0075 74.9115C78.2688 74.7348 78.2688 74.7348 78.5355 74.5544C78.6912 74.4476 78.847 74.3407 79.0074 74.2306C79.6304 73.9644 80.0173 74.0579 80.6641 74.2188Z" fill="#142B43"/>
<path d="M93.3594 79.1016C97.3555 79.1016 101.352 79.1016 105.469 79.1016C105.146 79.8105 104.824 80.5195 104.492 81.25C104.313 82.1442 104.268 82.9585 104.272 83.8623C104.272 84.0048 104.271 84.1473 104.27 84.2941C104.272 85.187 104.346 86.0332 104.492 86.9141C103.93 86.1957 103.494 85.4296 103.046 84.6367C102.514 83.8573 101.872 83.4765 100.977 83.2031C98.706 82.9946 98.706 82.9946 96.6026 83.6983C95.6534 84.5644 95.0636 85.7607 94.5312 86.9141C94.3359 86.3281 94.3359 86.3281 94.5312 85.7422C94.7636 83.4795 94.5828 81.5382 93.5547 79.4922C93.4902 79.3633 93.4258 79.2344 93.3594 79.1016Z" fill="#085274"/>
<path d="M89.6484 109.766C90.4985 110.063 91.2076 110.512 91.9472 111.015C92.0721 111.098 92.1971 111.182 92.3259 111.269C92.7238 111.536 93.121 111.804 93.5181 112.073C94.0399 112.424 94.5621 112.775 95.0844 113.126C95.2083 113.21 95.3323 113.293 95.46 113.379C96.3115 113.951 97.1715 114.504 98.0469 115.039C97.7936 115.576 97.5137 116.04 97.1535 116.512C97.0559 116.64 96.9582 116.769 96.8576 116.901C96.7546 117.036 96.6516 117.171 96.5454 117.31C95.6515 118.489 94.7797 119.676 93.9453 120.898C93.0978 120.154 92.5454 119.306 91.9579 118.346C91.7327 117.984 91.4981 117.628 91.2514 117.28C90.4819 116.177 89.9897 115.073 89.563 113.806C89.5124 113.657 89.4618 113.507 89.4096 113.353C89.0571 112.246 88.8663 111.379 89.3555 110.278C89.4522 110.109 89.5488 109.94 89.6484 109.766Z" fill="#F9FAFA"/>
<path d="M108.984 109.57C109.631 110.648 109.73 111.574 109.466 112.781C109.32 113.3 109.158 113.809 108.984 114.319C108.923 114.5 108.862 114.682 108.799 114.869C108.368 116.085 107.855 117.075 107.031 118.078C106.361 118.895 105.829 119.806 105.273 120.703C104.643 120.434 104.313 120.153 103.909 119.603C103.803 119.461 103.697 119.32 103.588 119.174C103.479 119.026 103.371 118.878 103.259 118.726C102.413 117.582 101.539 116.487 100.586 115.43C101.258 114.684 102.026 114.199 102.869 113.672C104.105 112.885 105.321 112.075 106.519 111.23C106.659 111.132 106.799 111.034 106.944 110.932C107.075 110.839 107.206 110.746 107.341 110.651C107.513 110.528 107.513 110.528 107.689 110.404C108.02 110.159 108.02 110.159 108.318 109.832C108.594 109.57 108.594 109.57 108.984 109.57Z" fill="#F9FAFA"/>
<path d="M90.8203 118.555C90.9492 118.555 91.0781 118.555 91.2109 118.555C91.4402 118.879 91.6532 119.215 91.8579 119.556C92.3738 120.392 92.9014 121.143 93.5547 121.875C93.9234 121.851 93.9234 121.851 94.3359 121.68C94.7136 121.231 94.7136 121.231 95.0439 120.691C95.2544 120.363 95.4721 120.04 95.7031 119.727C95.832 119.727 95.9609 119.727 96.0938 119.727C97.0345 120.937 97.5972 121.998 97.407 123.545C97.2874 124.257 97.1515 124.966 97.0083 125.674C96.85 126.497 96.7152 127.322 96.5836 128.149C96.5584 128.307 96.5333 128.465 96.5075 128.628C96.4562 128.951 96.4049 129.273 96.3537 129.596C96.2306 130.368 96.1037 131.138 95.977 131.909C95.7465 133.316 95.5255 134.723 95.3125 136.133C94.8296 135.65 94.8015 135.352 94.6617 134.688C94.6151 134.471 94.5686 134.255 94.5206 134.032C94.4717 133.799 94.4229 133.565 94.3726 133.325C94.2679 132.84 94.1629 132.354 94.0575 131.869C94.0054 131.629 93.9534 131.39 93.8998 131.143C93.7033 130.259 93.4867 129.381 93.2617 128.503C92.8759 126.995 92.5213 125.481 92.1753 123.962C91.7614 122.148 91.3229 120.346 90.8203 118.555Z" fill="#F7F8F9"/>
<path d="M130.859 92.5781C131.372 92.5659 131.372 92.5659 132.031 92.7734C132.329 93.1778 132.329 93.1778 132.617 93.6645C132.892 94.1446 132.892 94.1446 133.203 94.5312C133.805 94.5964 133.805 94.5964 134.375 94.5312C134.917 95.131 135.365 95.793 135.818 96.4607C135.94 96.6396 136.062 96.8184 136.188 97.0026C136.447 97.3864 136.707 97.7704 136.966 98.1546C137.78 99.3639 137.78 99.3639 138.632 100.546C139.756 102.084 139.756 102.084 139.648 103.174C139.552 103.536 139.552 103.536 139.453 103.906C139.356 103.52 139.356 103.52 139.258 103.125C139.129 103.125 139 103.125 138.867 103.125C138.612 102.769 138.376 102.399 138.147 102.026C137.31 100.693 136.448 99.3782 135.571 98.0713C135.443 97.8773 135.316 97.6832 135.184 97.4833C135.002 97.2132 135.002 97.2132 134.816 96.9376C134.707 96.7749 134.599 96.6123 134.487 96.4448C134.386 96.3289 134.284 96.2131 134.18 96.0937C132.153 96.0937 129.651 98.6479 128.107 99.8485C127.24 100.521 126.354 101.165 125.457 101.799C124.786 102.311 124.786 102.311 124.219 102.93C124.222 103.796 124.677 104.358 125.171 105.041C125.331 105.267 125.492 105.493 125.652 105.718C125.78 105.896 125.78 105.896 125.909 106.077C126.358 106.707 126.796 107.345 127.234 107.983C127.324 108.115 127.414 108.246 127.507 108.381C128.843 110.328 130.152 112.292 131.419 114.283C131.928 115.081 132.457 115.86 133.009 116.627C133.203 116.992 133.203 116.992 133.203 117.773C132.583 117.705 132.405 117.561 131.958 117.102C131.479 116.561 131.479 116.561 130.811 116.394C130.545 116.303 130.545 116.303 130.273 116.211C130.103 115.796 130.103 115.796 130.078 115.43C130.336 115.43 130.594 115.43 130.859 115.43C130.765 115.288 130.67 115.146 130.573 114.999C130.442 114.803 130.311 114.607 130.176 114.404C130.105 114.298 130.034 114.192 129.961 114.082C129.613 113.561 129.267 113.04 128.921 112.518C128.02 111.161 127.101 109.816 126.176 108.475C125.518 107.519 124.862 106.561 124.207 105.603C124.042 105.363 124.042 105.363 123.875 105.119C123.773 104.969 123.67 104.819 123.565 104.665C123.429 104.467 123.429 104.467 123.29 104.264C122.656 103.332 122.656 103.332 122.668 102.844C122.653 102.221 122.482 102.029 122.083 101.562C121.289 100.566 121.289 100.566 121.289 99.8047C121.418 99.6113 121.547 99.418 121.68 99.2187C122.058 99.353 122.058 99.353 122.461 99.6094C122.571 100.061 122.571 100.061 122.656 100.586C122.945 101.122 122.945 101.122 123.242 101.562C125.742 101.116 128.448 98.2861 130.448 96.7943C130.752 96.5682 131.056 96.3431 131.36 96.1182C131.521 95.9978 131.683 95.8775 131.849 95.7535C132.227 95.5078 132.227 95.5078 132.617 95.5078C132.431 95.2182 132.244 94.9295 132.056 94.6411C131.951 94.4802 131.847 94.3193 131.74 94.1536C131.477 93.7284 131.477 93.7284 131.055 93.5547C130.933 93.0542 130.933 93.0542 130.859 92.5781Z" fill="#092C47"/>
<path d="M107.617 118.555C107.858 119.277 107.739 119.497 107.507 120.215C107.099 121.578 106.783 122.95 106.482 124.341C106.017 126.48 105.503 128.602 104.962 130.723C104.596 132.168 104.275 133.61 104.025 135.079C103.985 135.234 103.946 135.388 103.906 135.547C103.713 135.644 103.713 135.644 103.516 135.742C103.499 135.603 103.483 135.463 103.466 135.319C103.383 134.634 103.297 133.949 103.21 133.264C103.194 133.137 103.178 133.009 103.161 132.878C102.947 131.214 102.686 129.566 102.364 127.919C102.333 127.756 102.301 127.593 102.268 127.425C102.11 126.621 101.947 125.818 101.78 125.015C101.72 124.719 101.66 124.423 101.601 124.126C101.571 123.992 101.542 123.858 101.511 123.719C101.351 122.907 101.37 122.413 101.758 121.68C101.841 121.521 101.924 121.363 102.01 121.2C102.096 121.048 102.182 120.896 102.271 120.74C102.358 120.585 102.445 120.431 102.534 120.272C102.6 120.157 102.666 120.041 102.734 119.922C103.409 120.2 103.731 120.527 104.15 121.118C104.252 121.26 104.354 121.401 104.459 121.547C104.572 121.709 104.572 121.709 104.688 121.875C105.253 121.809 105.439 121.714 105.817 121.275C105.927 121.106 106.038 120.938 106.152 120.764C106.269 120.589 106.386 120.413 106.507 120.232C106.616 120.065 106.724 119.899 106.836 119.727C106.994 119.49 107.153 119.254 107.312 119.019C107.413 118.865 107.513 118.712 107.617 118.555Z" fill="#F8F9F9"/>
<path d="M117.609 79.2091C118.164 79.2969 118.164 79.2969 118.628 79.6265C119.011 80.1718 119.021 80.4007 118.945 81.0547C118.686 81.4183 118.686 81.4183 118.324 81.7581C118.191 81.885 118.059 82.0119 117.923 82.1427C117.781 82.2751 117.639 82.4075 117.493 82.5439C116.552 83.4479 115.651 84.3378 114.844 85.3638C113.372 87.2203 113.372 87.2203 112.5 87.6953C111.258 87.5861 110.626 86.732 109.79 85.8887C109.634 85.7394 109.479 85.5901 109.319 85.4362C109.173 85.2905 109.027 85.1447 108.876 84.9945C108.742 84.8618 108.608 84.729 108.47 84.5922C108.203 84.1797 108.203 84.1797 108.243 83.6634C108.417 83.1491 108.526 82.9116 108.984 82.6172C109.785 82.6902 110.18 82.9349 110.754 83.4839C111.249 83.9526 111.68 84.2935 112.305 84.5703C113.455 83.452 114.54 82.2933 115.518 81.0204C115.602 80.9131 115.687 80.8059 115.774 80.6955C116.018 80.3839 116.258 80.0693 116.499 79.7546C116.992 79.2969 116.992 79.2969 117.609 79.2091Z" fill="#17C29F"/>
<path d="M89.8438 79.4922C91.0905 79.6098 91.0905 79.6098 91.5894 79.9316C91.8661 80.3874 91.8393 80.7268 91.7969 81.25C91.676 81.2983 91.5552 81.3467 91.4307 81.3965C90.994 81.6015 90.994 81.6015 90.8455 81.9946C90.5744 82.5199 90.2338 82.8437 89.8071 83.252C88.9926 84.0483 88.2387 84.8759 87.5 85.7422C87.2565 86.0276 87.0124 86.3124 86.7676 86.5967C86.6598 86.7231 86.5521 86.8495 86.441 86.9797C86.1328 87.3047 86.1328 87.3047 85.5469 87.6953C84.4944 87.7045 83.8861 86.9528 83.1787 86.2671C83.0576 86.1534 82.9365 86.0397 82.8117 85.9226C81.6494 84.819 81.6494 84.819 81.25 84.1797C81.2677 83.6148 81.449 83.3938 81.7993 82.9468C82.2266 82.6172 82.2266 82.6172 82.5928 82.6523C83.1029 82.8492 83.4203 83.1181 83.8257 83.4839C83.9614 83.6045 84.0971 83.7251 84.2369 83.8493C84.5703 84.1797 84.5703 84.1797 84.7656 84.5703C85.4467 84.4578 85.7506 84.2366 86.216 83.7341C86.3388 83.6026 86.4617 83.471 86.5882 83.3355C86.7159 83.1951 86.8436 83.0548 86.9751 82.9102C87.1057 82.7688 87.2362 82.6274 87.3707 82.4818C88.2472 81.5246 89.0889 80.5495 89.8438 79.4922Z" fill="#18BF9E"/>
<path d="M67.1875 93.5547C67.8485 93.6772 68.2782 93.9247 68.824 94.3123C68.9868 94.427 69.1495 94.5418 69.3172 94.66C69.4885 94.7827 69.6599 94.9053 69.8364 95.0317C70.0127 95.1567 70.1889 95.2816 70.3705 95.4103C70.8729 95.7671 71.3741 96.1255 71.875 96.4844C71.991 96.567 72.107 96.6497 72.2265 96.7349C73.7006 97.7857 75.1325 98.8905 76.5625 100C76.2903 100.866 75.8582 101.343 75.1953 101.953C73.0155 100.48 70.8872 98.9465 68.775 97.3781C67.9248 96.7485 67.068 96.128 66.2109 95.5078C66.3481 94.649 66.6078 94.2092 67.1875 93.5547Z" fill="#F6F7F8"/>
<path d="M131.278 93.6017C131.74 93.7906 131.901 94.0099 132.178 94.4214C132.261 94.542 132.345 94.6626 132.431 94.7868C132.617 95.1172 132.617 95.1172 132.617 95.5078C132.148 95.8659 131.677 96.2017 131.189 96.5332C130.884 96.7439 130.58 96.955 130.276 97.1664C130.036 97.3333 130.036 97.3333 129.791 97.5035C128.811 98.1939 127.852 98.9124 126.892 99.6294C126.459 99.9513 126.023 100.269 125.586 100.586C125.43 100.701 125.274 100.816 125.113 100.934C124.959 101.043 124.805 101.152 124.646 101.265C124.439 101.414 124.439 101.414 124.227 101.566C123.828 101.758 123.828 101.758 123.414 101.728C122.816 101.458 122.592 100.938 122.266 100.391C122.526 99.7908 122.783 99.4527 123.304 99.0601C123.436 98.96 123.567 98.8599 123.703 98.7568C123.845 98.6515 123.987 98.5461 124.133 98.4375C124.28 98.327 124.427 98.2164 124.578 98.1025C126.001 97.0376 127.451 96.013 128.913 95.0028C129.186 94.8067 129.452 94.6019 129.713 94.3915C129.85 94.2823 129.986 94.1731 130.126 94.0605C130.248 93.9593 130.37 93.8581 130.496 93.7538C130.859 93.5547 130.859 93.5547 131.278 93.6017Z" fill="#F6F7F7"/>
<path d="M122.266 76.1719C125.194 77.7775 125.886 79.8628 126.88 82.9346C126.954 83.1617 127.029 83.3888 127.106 83.6227C127.251 84.0647 127.395 84.5068 127.539 84.9491C127.706 85.4593 127.876 85.9683 128.047 86.4769C128.337 87.3455 128.604 88.2193 128.857 89.0991C128.926 89.324 128.926 89.324 128.996 89.5535C129.247 90.431 129.37 91.0904 129.102 91.9922C128.973 92.1211 128.844 92.25 128.711 92.3828C128.576 91.9556 128.442 91.5284 128.308 91.1011C128.265 90.9647 128.223 90.8284 128.179 90.6879C127.91 89.8283 127.646 88.9673 127.386 88.105C127.326 87.9079 127.267 87.7108 127.205 87.5077C127.088 87.1193 126.972 86.7308 126.855 86.3422C126.575 85.4138 126.278 84.502 125.928 83.5976C125.762 83.1525 125.617 82.7033 125.473 82.251C124.723 79.9278 124.055 78.2295 121.875 76.9531C122.004 76.8887 122.133 76.8242 122.266 76.7578C122.266 76.5645 122.266 76.3711 122.266 76.1719Z" fill="#192F46"/>
<path d="M92.7612 89.9658C93.4225 90.0468 93.6967 90.1299 94.1406 90.625C94.2505 91.1133 94.2505 91.1133 94.1406 91.6016C93.3308 92.2098 92.4305 92.4337 91.4673 92.688C91.3112 92.7299 91.1551 92.7719 90.9942 92.8151C88.287 93.5334 88.287 93.5334 87.6953 93.5547C87.502 93.4258 87.3086 93.2969 87.1094 93.1641C86.5296 93.0744 86.5296 93.0744 85.9009 93.042C85.6886 93.0274 85.4764 93.0128 85.2577 92.9977C85.0953 92.9882 84.9329 92.9786 84.7656 92.9688C84.7656 92.9043 84.7656 92.8398 84.7656 92.7734C85.0421 92.7659 85.0421 92.7659 85.3241 92.7582C87.8336 92.6473 90.1197 92.2317 91.9006 90.3008C92.1875 90.0391 92.1875 90.0391 92.7612 89.9658Z" fill="#EFD4BA"/>
<path d="M108.008 108.984C108.104 109.274 108.104 109.274 108.203 109.57C108.332 109.635 108.461 109.699 108.594 109.766C106.225 111.914 103.366 113.669 100.586 115.234C100.457 115.105 100.328 114.977 100.195 114.844C100.324 114.779 100.453 114.715 100.586 114.648C100.614 114.524 100.641 114.401 100.67 114.273C100.864 113.564 101.581 113.313 102.185 112.964C103.73 112.037 105.186 111.023 106.641 109.961C107.096 109.634 107.552 109.309 108.008 108.984Z" fill="#11283F"/>
<path d="M80.6641 74.2188C80.0008 74.96 79.2503 75.4127 78.4058 75.9155C75.5925 77.6015 75.5925 77.6015 73.8281 80.2734C73.7003 80.535 73.5707 80.7958 73.4375 81.0547C73.0981 80.5556 73.0464 80.2493 73.0347 79.6387C73.6612 77.4274 76.1191 76.1995 77.9297 75C78.1418 74.8568 78.1418 74.8568 78.3582 74.7106C78.495 74.6208 78.6318 74.531 78.7727 74.4385C78.8947 74.3577 79.0167 74.2768 79.1424 74.1936C79.6871 73.9287 80.1059 74.0374 80.6641 74.2188Z" fill="#12293E"/>
<path d="M94.9219 98.8281C95.1986 98.8559 95.4753 98.8846 95.752 98.9136C95.9831 98.9374 95.9831 98.9374 96.2189 98.9616C96.6797 99.0234 96.6797 99.0234 97.0299 99.1257C97.694 99.2691 98.3594 99.2559 99.0356 99.2554C99.1832 99.2556 99.3308 99.2559 99.4829 99.2562C100.514 99.2473 101.477 99.1392 102.481 98.8945C103.002 98.8174 103.399 98.8948 103.906 99.0234C103.387 99.8023 102.996 99.8611 102.11 100.083C101.136 100.23 100.179 100.26 99.1943 100.269C99.0127 100.271 98.8312 100.274 98.6441 100.277C97.2918 100.268 96.1346 100.02 94.9219 99.4141C94.9219 99.2207 94.9219 99.0273 94.9219 98.8281Z" fill="#0C213B"/>
<path d="M89.8438 74.2188C90.7302 74.3286 91.4157 74.5612 92.2119 74.9634C92.4098 75.0613 92.6077 75.1593 92.8116 75.2602C93.3541 75.5828 93.7388 75.8817 94.1406 76.3672C94.2021 76.9815 94.2227 77.3748 93.9453 77.9297C97.6191 77.9941 101.293 78.0586 105.078 78.125C105.078 78.1895 105.078 78.2539 105.078 78.3203C101.275 78.3203 97.4727 78.3203 93.5547 78.3203C93.458 77.8369 93.458 77.8369 93.3594 77.3438C92.9217 76.2845 92.1623 75.9796 91.1743 75.5249C91.0279 75.4548 90.8815 75.3847 90.7307 75.3124C90.3711 75.1407 90.0099 74.9723 89.6484 74.8047C89.7129 74.6113 89.7773 74.418 89.8438 74.2188Z" fill="#283544"/>
<path d="M99.2187 88.4766C99.4121 88.541 99.6055 88.6055 99.8047 88.6719C99.9985 89.1846 99.9985 89.1846 100.171 89.8438C100.412 90.6992 100.669 91.4189 101.135 92.1753C101.476 92.7487 101.562 92.9364 101.575 93.6279C101.333 94.2244 101.156 94.4334 100.586 94.7266C100.328 94.7266 100.07 94.7266 99.8047 94.7266C99.8651 94.6138 99.9255 94.501 99.9878 94.3848C100.195 93.947 100.335 93.6448 100.391 93.1641C100.162 92.6312 100.162 92.6312 99.8291 92.0776C99.2319 90.9498 98.9682 89.9516 99.0234 88.6719C99.0879 88.6074 99.1523 88.543 99.2187 88.4766Z" fill="#16273D"/>
<path d="M104.297 89.6484C104.49 89.7129 104.684 89.7773 104.883 89.8438C104.689 90.1016 104.496 90.3594 104.297 90.625C104.802 91.5717 105.183 91.9316 106.203 92.2546C106.348 92.2969 106.492 92.3392 106.641 92.3828C106.966 92.4919 107.292 92.6018 107.617 92.7124C107.878 92.7981 108.138 92.8837 108.398 92.9688C108.27 93.0332 108.141 93.0977 108.008 93.1641C108.008 93.293 108.008 93.4219 108.008 93.5547C106.535 93.5202 105.339 93.2059 104.102 92.3828C103.618 91.6582 103.636 91.287 103.711 90.4297C104.004 89.9536 104.004 89.9536 104.297 89.6484Z" fill="#0F1F36"/>
<path d="M112.305 97.0703C112.434 97.2637 112.562 97.457 112.695 97.6562C112.824 97.5273 112.953 97.3984 113.086 97.2656C113.363 98.1744 113.175 98.9245 112.939 99.8169C112.906 99.955 112.873 100.093 112.839 100.235C112.646 100.99 112.439 101.567 111.914 102.148C111.85 101.955 111.785 101.762 111.719 101.562C111.59 101.498 111.461 101.434 111.328 101.367C111.386 101.208 111.444 101.048 111.504 100.883C111.744 100.114 111.896 99.3523 112.036 98.5596C112.062 98.4158 112.089 98.272 112.115 98.1239C112.179 97.7729 112.242 97.4216 112.305 97.0703Z" fill="#172D44"/>
<path d="M119.25 73.9014C120.306 74.4882 121.385 75.1478 122.266 75.9766C122.266 76.2344 122.266 76.4922 122.266 76.7578C121.653 76.6358 121.218 76.428 120.695 76.0872C120.55 75.9926 120.404 75.8981 120.255 75.8007C120.104 75.7016 119.954 75.6026 119.8 75.5005C119.648 75.4022 119.497 75.3039 119.341 75.2026C118.22 74.4704 118.22 74.4704 117.773 74.0234C118.431 73.6215 118.475 73.6019 119.25 73.9014Z" fill="#172B43"/>
<path d="M91.4062 117.773C92.1646 118.026 92.2904 118.338 92.7124 119.006C92.834 119.195 92.9556 119.383 93.0809 119.578C93.3594 120.117 93.3594 120.117 93.3594 120.898C93.2305 121.092 93.1016 121.285 92.9688 121.484C92.6747 121.07 92.3819 120.655 92.0898 120.239C92.006 120.121 91.9222 120.004 91.8358 119.882C91.2109 118.99 91.2109 118.99 91.2109 118.555C91.082 118.49 90.9531 118.426 90.8203 118.359C91.0137 118.359 91.207 118.359 91.4062 118.359C91.4062 118.166 91.4062 117.973 91.4062 117.773Z" fill="#142D47"/>
<path d="M95.1172 119.141C95.375 119.27 95.6328 119.398 95.8984 119.531C94.8296 121.581 94.8296 121.581 94.1406 122.07C93.7012 122.021 93.7012 122.021 93.3594 121.875C93.2949 121.553 93.2305 121.23 93.1641 120.898C93.3091 120.858 93.4541 120.818 93.6035 120.776C94.297 120.43 94.5305 119.993 94.9219 119.336C94.9863 119.271 95.0508 119.207 95.1172 119.141Z" fill="#0E2943"/>
<path d="M79.8828 96.6797C79.8184 96.9375 79.7539 97.1953 79.6875 97.4609C79.8164 97.5254 79.9453 97.5898 80.0781 97.6562C79.8379 97.7129 79.8379 97.7129 79.5929 97.7707C79.3824 97.8215 79.1719 97.8724 78.9551 97.9248C78.7466 97.9747 78.5381 98.0245 78.3234 98.0759C77.8182 98.2185 77.4125 98.3867 76.9531 98.6328C76.6945 98.7047 76.4343 98.7719 76.1719 98.8281C76.4051 98.1642 76.5946 97.7068 77.1484 97.2656C77.7046 97.0802 77.7046 97.0802 78.3325 96.936C78.6441 96.8624 78.6441 96.8624 78.9619 96.7873C79.4922 96.6797 79.4922 96.6797 79.8828 96.6797Z" fill="#162A3F"/>
<path d="M109.204 93.1274C109.437 93.183 109.437 93.183 109.675 93.2396C109.834 93.2791 109.993 93.3186 110.156 93.3594C110.309 93.3969 110.462 93.4344 110.619 93.473C110.986 93.5639 111.353 93.6568 111.719 93.75C111.719 93.9434 111.719 94.1367 111.719 94.3359C110.673 94.5982 109.921 94.4348 108.911 94.1528C108.767 94.1147 108.624 94.0765 108.475 94.0372C108.124 93.9436 107.773 93.8471 107.422 93.75C107.615 93.6855 107.809 93.6211 108.008 93.5547C108.008 93.4258 108.008 93.2969 108.008 93.1641C108.502 92.9168 108.674 92.9991 109.204 93.1274Z" fill="#1B293D"/>
<path d="M126.367 81.4453C126.504 81.8187 126.638 82.1933 126.77 82.5684C126.845 82.7768 126.92 82.9853 126.997 83.2001C127.145 83.774 127.162 84.028 126.953 84.5703C126.76 84.5703 126.566 84.5703 126.367 84.5703C126.029 83.9527 125.837 83.3462 125.659 82.666C125.608 82.4737 125.557 82.2813 125.505 82.0831C125.467 81.9371 125.43 81.7911 125.391 81.6406C125.977 81.4453 125.977 81.4453 126.367 81.4453Z" fill="#223953"/>
<path d="M111.328 73.2422C111.135 73.3711 110.941 73.5 110.742 73.6328C110.613 73.5684 110.484 73.5039 110.352 73.4375C110.352 73.6953 110.352 73.9531 110.352 74.2188C110.076 74.3836 109.799 74.5458 109.521 74.707C109.367 74.7977 109.213 74.8883 109.055 74.9817C108.594 75.1953 108.594 75.1953 107.812 75.1953C107.999 74.5205 108.14 74.2622 108.727 73.8602C108.932 73.761 109.138 73.6618 109.351 73.5596C109.556 73.4574 109.76 73.3551 109.972 73.2498C110.552 73.045 110.77 73.013 111.328 73.2422Z" fill="#19293F"/>
<path d="M130.859 92.5781C131.372 92.5659 131.372 92.5659 132.031 92.7734C132.49 93.3207 132.85 93.9119 133.203 94.5312C133.01 94.7246 132.816 94.918 132.617 95.1172C132.422 94.9219 132.227 94.7266 132.031 94.5312C131.862 94.3782 131.693 94.2251 131.519 94.0674C131.039 93.5374 130.919 93.2765 130.859 92.5781Z" fill="#193048"/>
<path d="M87.5 73.0469C87.8098 73.1302 88.1189 73.2162 88.4277 73.3032C88.5999 73.3508 88.7722 73.3984 88.9496 73.4474C89.4644 73.637 89.8152 73.8692 90.2344 74.2188C90.1055 74.2188 89.9766 74.2188 89.8438 74.2188C89.7793 74.4121 89.7148 74.6055 89.6484 74.8047C88.7461 74.4824 87.8438 74.1602 86.9141 73.8281C87.1074 73.5703 87.3008 73.3125 87.5 73.0469Z" fill="#1F2C3E"/>
<path d="M107.617 75.5859C107.617 75.7148 107.617 75.8437 107.617 75.9766C107.488 76.1055 107.359 76.2344 107.227 76.3672C107.19 76.6089 107.19 76.6089 107.153 76.8555C107.031 77.3438 107.031 77.3438 106.628 77.6001C106.504 77.6444 106.379 77.6887 106.25 77.7344C105.945 77.4902 105.945 77.4902 105.664 77.1484C105.64 76.77 105.64 76.77 105.859 76.3672C106.391 75.9785 106.941 75.5859 107.617 75.5859Z" fill="#E4CDB4"/>
<path d="M115.43 95.3125C115.715 95.4006 116 95.4904 116.284 95.5811C116.443 95.6309 116.601 95.6808 116.765 95.7321C117.188 95.8984 117.188 95.8984 117.578 96.2891C117.449 96.5469 117.32 96.8047 117.188 97.0703C116.479 96.748 115.77 96.4258 115.039 96.0938C115.039 95.9648 115.039 95.8359 115.039 95.7031C115.168 95.7031 115.297 95.7031 115.43 95.7031C115.43 95.5742 115.43 95.4453 115.43 95.3125Z" fill="#1B2D46"/>
<path d="M72.8516 79.6875C73.291 80.3466 73.3938 80.6582 73.4375 81.4453C73.2838 82.0484 73.0792 82.6243 72.8516 83.2031C72.7227 83.0098 72.5938 82.8164 72.4609 82.6172C72.332 82.6172 72.2031 82.6172 72.0703 82.6172C72.3118 81.6341 72.5681 80.6593 72.8516 79.6875Z" fill="#172B40"/>
<path d="M111.689 73.0278C112.09 73.0342 112.49 73.0405 112.891 73.0469C112.891 73.1113 112.891 73.1758 112.891 73.2422C113.857 73.3066 114.824 73.3711 115.82 73.4375C115.82 73.502 115.82 73.5664 115.82 73.6328C115.697 73.6377 115.574 73.6426 115.448 73.6476C114.884 73.6705 114.321 73.6944 113.757 73.7183C113.564 73.7259 113.37 73.7336 113.171 73.7415C112.153 73.7855 111.161 73.8557 110.156 74.0234C110.221 73.8301 110.285 73.6367 110.352 73.4375C110.742 73.3154 110.742 73.3154 111.133 73.2422C111.328 73.0469 111.328 73.0469 111.689 73.0278Z" fill="#041A35"/>
<path d="M77.9297 90.0391C78.5172 90.7486 78.5172 90.7486 78.5034 91.394C78.296 92.0717 78.0307 92.4622 77.5391 92.9688C77.4102 92.9688 77.2813 92.9688 77.1484 92.9688C77.2759 92.2818 77.4441 91.6224 77.6489 90.9546C77.7015 90.7821 77.7542 90.6097 77.8084 90.432C77.8484 90.3023 77.8884 90.1727 77.9297 90.0391Z" fill="#233443"/>
<path d="M87.7144 93.4761C88.5388 93.464 88.9444 93.4759 89.6484 93.9453C89.3438 94.0447 89.0385 94.1419 88.7329 94.2383C88.478 94.3198 88.478 94.3198 88.2179 94.4031C87.6965 94.531 87.2531 94.5544 86.7188 94.5312C86.9356 93.953 87.0782 93.5981 87.7144 93.4761Z" fill="#061B36"/>
<path d="M80.6641 74.2188C80.1267 74.7959 79.6099 75.2251 78.9062 75.5859C78.7129 75.5859 78.5195 75.5859 78.3203 75.5859C78.3735 74.9302 78.4343 74.6791 78.9429 74.2432C79.6057 73.978 79.9816 74.0442 80.6641 74.2188Z" fill="#0F2238"/>
<path d="M120.898 90.625C121.294 91.2178 121.352 91.4442 121.411 92.1265C121.426 92.2843 121.44 92.4422 121.455 92.6048C121.47 92.785 121.47 92.785 121.484 92.9688C120.735 92.6361 120.735 92.6361 120.447 92.1143C120.306 91.5771 120.291 91.3266 120.508 90.8203C120.637 90.7559 120.766 90.6914 120.898 90.625Z" fill="#17263A"/>
<path d="M88.8672 92.3828C88.7552 92.9428 88.6989 93.137 88.2812 93.5547C87.6709 93.4814 87.6709 93.4814 87.1094 93.3594C87.1094 93.2949 87.1094 93.2305 87.1094 93.1641C86.3359 93.0996 85.5625 93.0352 84.7656 92.9688C84.7656 92.9043 84.7656 92.8398 84.7656 92.7734C85.0693 92.7557 85.0693 92.7557 85.379 92.7376C85.6466 92.7211 85.9141 92.7046 86.1816 92.688C86.3148 92.6803 86.448 92.6726 86.5852 92.6647C87.3525 92.6163 88.1112 92.3828 88.8672 92.3828Z" fill="#D1BCAA"/>
<path d="M69.7266 89.4531C69.8555 89.6465 69.9844 89.8398 70.1172 90.0391C70.0527 90.168 69.9883 90.2969 69.9219 90.4297C70.0508 90.4297 70.1797 90.4297 70.3125 90.4297C70.166 91.9434 70.166 91.9434 69.7266 92.3828C69.7266 92.0605 69.7266 91.7383 69.7266 91.4062C69.5977 91.4062 69.4688 91.4062 69.3359 91.4062C69.4648 90.7617 69.5937 90.1172 69.7266 89.4531Z" fill="#22354B"/>
<path d="M101.367 92.9688C101.526 93.2983 101.526 93.2983 101.562 93.75C101.135 94.2871 101.135 94.2871 100.586 94.7266C100.328 94.7266 100.07 94.7266 99.8047 94.7266C100.055 94.1676 100.299 93.7452 100.781 93.3594C100.975 93.3594 101.168 93.3594 101.367 93.3594C101.367 93.2305 101.367 93.1016 101.367 92.9688Z" fill="#233147"/>
<path d="M80.0781 96.4844C80.5938 96.4844 81.1094 96.4844 81.6406 96.4844C81.6406 96.6777 81.6406 96.8711 81.6406 97.0703C80.9336 97.3274 80.4501 97.4609 79.6875 97.4609C79.8164 97.1387 79.9453 96.8164 80.0781 96.4844Z" fill="#092238"/>
<path d="M92.5781 92.5781C92.3848 92.8682 92.3848 92.8682 92.1875 93.1641C92.3164 93.2285 92.4453 93.293 92.5781 93.3594C91.2842 93.6035 91.2842 93.6035 90.625 93.1641C91.0156 92.5781 91.0156 92.5781 91.3818 92.4316C91.835 92.3783 92.1464 92.4394 92.5781 92.5781Z" fill="#1F2F46"/>
<path d="M99.2188 88.4766C99.4121 88.541 99.6055 88.6055 99.8047 88.6719C99.8691 89.252 99.9336 89.832 100 90.4297C99.5117 90.21 99.5117 90.21 99.0234 89.8438C98.9502 89.2334 98.9502 89.2334 99.0234 88.6719C99.0879 88.6074 99.1523 88.543 99.2188 88.4766Z" fill="#243040"/>
<path d="M104.297 90.8203C104.418 90.9734 104.539 91.1265 104.663 91.2842C105.058 91.7907 105.058 91.7907 105.469 92.1875C105.469 92.4453 105.469 92.7031 105.469 92.9688C105.082 92.8398 104.695 92.7109 104.297 92.5781C104.297 91.998 104.297 91.418 104.297 90.8203Z" fill="#18273D"/>
<path d="M120.898 75.3906C121.477 75.5103 121.754 75.6355 122.266 75.9766C122.266 76.2344 122.266 76.4922 122.266 76.7578C121.524 76.6519 121.197 76.3279 120.703 75.7812C120.768 75.6523 120.832 75.5234 120.898 75.3906Z" fill="#11223B"/>
<path d="M85.5469 60.5469C85.6113 61.4492 85.6758 62.3516 85.7422 63.2812C85.6133 63.2812 85.4844 63.2812 85.3516 63.2812C85.2871 62.7656 85.2227 62.25 85.1562 61.7188C85.0273 61.7188 84.8984 61.7188 84.7656 61.7188C84.7656 61.8477 84.7656 61.9766 84.7656 62.1094C84.6367 62.1094 84.5078 62.1094 84.375 62.1094C84.924 60.5469 84.924 60.5469 85.5469 60.5469Z" fill="#32465A"/>
<path d="M128.32 90.4297C128.804 90.623 128.804 90.623 129.297 90.8203C129.15 91.9434 129.15 91.9434 128.711 92.3828C128.398 91.6977 128.277 91.1829 128.32 90.4297Z" fill="#182C43"/>
<path d="M87.1094 93.75C87.1094 94.0755 87.1094 94.401 87.1094 94.7266C86.7227 94.7266 86.3359 94.7266 85.9375 94.7266C85.9375 94.5977 85.9375 94.4688 85.9375 94.3359C85.6152 94.3359 85.293 94.3359 84.9609 94.3359C85.7441 93.8138 86.1663 93.75 87.1094 93.75Z" fill="#273648"/>
<path d="M108.008 108.984C108.072 109.178 108.137 109.371 108.203 109.57C108.332 109.635 108.461 109.699 108.594 109.766C108.362 110.059 108.362 110.059 108.008 110.352C107.483 110.388 107.483 110.388 107.031 110.352C107.568 109.204 107.568 109.204 108.008 108.984Z" fill="#09213B"/>
<path d="M65.8203 93.75C65.9492 93.8145 66.0781 93.8789 66.2109 93.9453C66.4688 93.8809 66.7266 93.8164 66.9922 93.75C66.7344 94.3301 66.4766 94.9102 66.2109 95.5078C65.8306 94.9373 65.7125 94.6107 65.625 93.9453C65.6895 93.8809 65.7539 93.8164 65.8203 93.75Z" fill="#20384F"/>
<path d="M93.9453 89.6484C94.2031 89.7773 94.4609 89.9062 94.7266 90.0391C94.5977 90.4902 94.4688 90.9414 94.3359 91.4062C94.2957 91.2894 94.2554 91.1726 94.2139 91.0522C93.8458 90.4668 93.3962 90.3098 92.7734 90.0391C93.5059 89.8193 93.5059 89.8193 93.9453 90.0391C93.9453 89.9102 93.9453 89.7813 93.9453 89.6484Z" fill="#0F1F33"/>
<path d="M94.9219 98.8281C95.502 98.8926 96.082 98.957 96.6797 99.0234C96.4219 99.2813 96.1641 99.5391 95.8984 99.8047C95.415 99.6113 95.415 99.6113 94.9219 99.4141C94.9219 99.2207 94.9219 99.0273 94.9219 98.8281Z" fill="#222D3D"/>
<path d="M71.6797 84.375C71.873 84.375 72.0664 84.375 72.2656 84.375C72.1191 85.498 72.1191 85.498 71.6797 85.9375C71.4863 85.9375 71.293 85.9375 71.0938 85.9375C71.2006 85.2784 71.2998 84.9449 71.6797 84.375Z" fill="#0C2338"/>
<path d="M108.594 74.0234C108.787 74.0879 108.98 74.1523 109.18 74.2188C108.936 74.707 108.936 74.707 108.594 75.1953C108.336 75.1953 108.078 75.1953 107.812 75.1953C108.154 74.2432 108.154 74.2432 108.594 74.0234Z" fill="#0D213A"/>
<path d="M87.5 73.0469C87.7578 73.1113 88.0156 73.1758 88.2812 73.2422C88.3457 73.5 88.4102 73.7578 88.4766 74.0234C87.9609 73.959 87.4453 73.8945 86.9141 73.8281C87.1074 73.5703 87.3008 73.3125 87.5 73.0469Z" fill="#152639"/>
<path d="M94.5313 120.508C94.7266 120.898 94.7266 120.898 94.5923 121.399C94.3359 121.875 94.3359 121.875 93.9209 122.034C93.8 122.046 93.6792 122.058 93.5547 122.07C93.6606 121.329 93.9846 121.002 94.5313 120.508Z" fill="#04213D"/>
<path d="M94.1406 111.719C94.334 111.783 94.5273 111.848 94.7266 111.914C94.7507 112.071 94.7749 112.228 94.7998 112.39C94.8602 112.638 94.8602 112.638 94.9219 112.891C95.0508 112.955 95.1797 113.02 95.3125 113.086C94.8486 113.037 94.8486 113.037 94.3359 112.891C94.0674 112.512 94.0674 112.512 93.9453 112.109C94.0098 111.98 94.0742 111.852 94.1406 111.719Z" fill="#0A233D"/>
<path d="M70.7031 86.7188C70.8965 86.7832 71.0898 86.8477 71.2891 86.9141C71.2246 87.3652 71.1602 87.8164 71.0938 88.2812C70.9004 88.1523 70.707 88.0234 70.5078 87.8906C70.459 87.3901 70.459 87.3901 70.5078 86.9141C70.5723 86.8496 70.6367 86.7852 70.7031 86.7188Z" fill="#0D253B"/>
<path d="M107.617 118.555C107.894 119.385 107.655 119.867 107.422 120.703C107.293 120.51 107.164 120.316 107.031 120.117C106.838 120.214 106.838 120.214 106.641 120.312C106.885 119.637 107.163 119.112 107.617 118.555Z" fill="#C2C9D0"/>
<path d="M92.5781 92.3828C93.1582 92.4795 93.1582 92.4795 93.75 92.5781C93.6855 92.707 93.6211 92.8359 93.5547 92.9688C93.1013 93.0483 92.6451 93.1141 92.1875 93.1641C92.3164 92.9062 92.4453 92.6484 92.5781 92.3828Z" fill="#091E38"/>
<path d="M101.172 113.672C101.172 113.865 101.172 114.059 101.172 114.258C101.236 114.451 101.301 114.645 101.367 114.844C100.98 115.037 100.98 115.037 100.586 115.234C100.457 115.105 100.328 114.977 100.195 114.844C100.324 114.779 100.453 114.715 100.586 114.648C100.618 114.52 100.65 114.391 100.684 114.258C100.716 114.129 100.748 114 100.781 113.867C100.91 113.803 101.039 113.738 101.172 113.672Z" fill="#1A3042"/>
<path d="M103.906 99.0234C103.713 99.3135 103.713 99.3135 103.516 99.6094C103 99.4805 102.484 99.3516 101.953 99.2188C101.953 99.1543 101.953 99.0898 101.953 99.0234C102.675 98.8378 103.184 98.8378 103.906 99.0234Z" fill="#29394B"/>
<path d="M74.2188 77.7344C74.3477 77.7988 74.4766 77.8633 74.6094 77.9297C74.5449 78.252 74.4805 78.5742 74.4141 78.9062C74.0918 78.8418 73.7695 78.7773 73.4375 78.7109C73.6953 78.3887 73.9531 78.0664 74.2188 77.7344Z" fill="#0F243B"/>
<path d="M77.9297 90.0391C78.2349 90.3809 78.2349 90.3809 78.5156 90.8203C78.4546 91.2598 78.4546 91.2598 78.3203 91.6016C78.1914 91.6016 78.0625 91.6016 77.9297 91.6016C77.71 90.4785 77.71 90.4785 77.9297 90.0391Z" fill="#162E41"/>
<path d="M107.812 74.4141C107.877 74.543 107.941 74.6719 108.008 74.8047C107.943 74.9336 107.879 75.0625 107.812 75.1953C107.941 75.2598 108.07 75.3242 108.203 75.3906C107.849 75.5249 107.849 75.5249 107.422 75.5859C107.08 75.3052 107.08 75.3052 106.836 75C107.422 74.6094 107.422 74.6094 107.812 74.4141Z" fill="#1F3147"/>
<path d="M79.8828 96.6797C79.8184 96.9375 79.7539 97.1953 79.6875 97.4609C79.8164 97.5254 79.9453 97.5898 80.0781 97.6562C79.7559 97.6562 79.4336 97.6562 79.1016 97.6562C79.1016 97.5273 79.1016 97.3984 79.1016 97.2656C78.9082 97.1367 78.7148 97.0078 78.5156 96.875C79.4434 96.6797 79.4434 96.6797 79.8828 96.6797Z" fill="#273B4B"/>
<path d="M93.5547 111.133C93.8125 111.326 94.0703 111.52 94.3359 111.719C94.207 111.977 94.0781 112.234 93.9453 112.5C93.6875 112.307 93.4297 112.113 93.1641 111.914C93.293 111.656 93.4219 111.398 93.5547 111.133Z" fill="#1D344D"/>
<path d="M87.3047 93.5547C87.498 93.5547 87.6914 93.5547 87.8906 93.5547C87.8262 93.877 87.7617 94.1992 87.6953 94.5312C87.373 94.5312 87.0508 94.5312 86.7188 94.5312C86.9751 94.043 86.9751 94.043 87.3047 93.5547Z" fill="#12273F"/>
<path d="M67.9688 92.7734C68.1621 92.8379 68.3555 92.9023 68.5547 92.9688C68.5547 93.0977 68.5547 93.2266 68.5547 93.3594C68.168 93.5527 68.168 93.5527 67.7734 93.75C67.5801 93.6211 67.3867 93.4922 67.1875 93.3594C67.3164 93.3594 67.4453 93.3594 67.5781 93.3594C67.5781 93.2305 67.5781 93.1016 67.5781 92.9688C67.707 92.9043 67.8359 92.8398 67.9688 92.7734Z" fill="#1B3550"/>
<path d="M67.9688 92.5781C66.9643 93.4431 66.9643 93.4431 66.2109 93.5547C66.6375 92.6102 66.9519 92.5514 67.9688 92.5781Z" fill="#243449"/>
<path d="M127.539 87.8906C127.799 87.8906 128.06 87.8906 128.32 87.8906C128.357 88.3545 128.357 88.3545 128.32 88.8672C128.127 88.9961 127.934 89.125 127.734 89.2578C127.67 88.8066 127.605 88.3555 127.539 87.8906Z" fill="#0E243E"/>
<path d="M70.3125 87.5C70.5703 87.7578 70.8281 88.0156 71.0938 88.2812C70.8984 88.6719 70.8984 88.6719 70.5078 88.8672C70.3789 88.8027 70.25 88.7383 70.1172 88.6719C70.1816 88.2852 70.2461 87.8984 70.3125 87.5Z" fill="#22384D"/>
<path d="M72.2656 81.4453C72.3945 81.6387 72.5234 81.832 72.6562 82.0312C72.7852 82.0312 72.9141 82.0312 73.0469 82.0312C72.9824 82.418 72.918 82.8047 72.8516 83.2031C72.7227 83.0098 72.5938 82.8164 72.4609 82.6172C72.332 82.6172 72.2031 82.6172 72.0703 82.6172C72.1348 82.2305 72.1992 81.8437 72.2656 81.4453Z" fill="#26384B"/>
<path d="M121.68 99.2188C121.938 99.3477 122.195 99.4766 122.461 99.6094C122.396 99.9316 122.332 100.254 122.266 100.586C122.008 100.328 121.75 100.07 121.484 99.8047C121.549 99.6113 121.613 99.418 121.68 99.2188Z" fill="#092038"/>
<path d="M82.2266 95.7031C82.291 95.832 82.3555 95.9609 82.4219 96.0938C82.8173 96.2211 82.8173 96.2211 83.2031 96.2891C82.8369 96.4966 82.8369 96.4966 82.4219 96.6797C82.293 96.6152 82.1641 96.5508 82.0312 96.4844C82.0312 96.3555 82.0312 96.2266 82.0312 96.0938C81.9023 96.0293 81.7734 95.9648 81.6406 95.8984C81.834 95.834 82.0273 95.7695 82.2266 95.7031Z" fill="#1F3245"/>
<path d="M80.4688 73.4375C80.6621 73.502 80.8555 73.5664 81.0547 73.6328C80.8613 73.7295 80.8613 73.7295 80.6641 73.8281C80.8574 73.957 81.0508 74.0859 81.25 74.2188C80.5423 74.4546 80.3435 74.3248 79.6875 74.0234C80.0415 73.7183 80.0415 73.7183 80.4688 73.4375Z" fill="#1B2F44"/>
<path d="M87.6953 60.5469C87.8242 60.6113 87.9531 60.6758 88.0859 60.7422C87.4092 61.3223 87.4092 61.3223 86.7188 61.9141C86.9284 61.0753 87.0134 60.9868 87.6953 60.5469Z" fill="#1F334D"/>
<path d="M50.7812 57.6172C50.9102 57.6816 51.0391 57.7461 51.1719 57.8125C50.4951 58.3926 50.4951 58.3926 49.8047 58.9844C50.0144 58.1457 50.0993 58.0571 50.7812 57.6172Z" fill="#50B5B7"/>
</g>
<defs>
<clipPath id="clip0_26_446">
<rect width="200" height="200" fill="white"/>
</clipPath>
</defs>
</svg>
