<?xml version="1.0" encoding="UTF-8"?>
<svg version="1.1" xmlns="http://www.w3.org/2000/svg" width="512" height="512">
<path d="M0 0 C29.79339649 26.39760015 49.12098536 63.3665448 51.87890625 103.30859375 C53.35150163 136.56614971 46.26424151 165.94368991 30.87890625 195.30859375 C35.91525096 199.92979508 40.99599198 204.45296408 46.31640625 208.74609375 C51.08886828 212.60567978 55.60999734 216.68059366 60.125 220.8359375 C63.71097909 224.05568894 67.44592117 227.06764551 71.1953125 230.09375 C73.82599182 232.26492202 76.35833049 234.51100732 78.87890625 236.80859375 C82.29629997 239.92318043 85.78412975 242.90045995 89.37890625 245.80859375 C93.84166838 249.41891817 98.10610158 253.19287304 102.34765625 257.05859375 C104.96735435 259.38721428 107.65405935 261.60422322 110.37890625 263.80859375 C114.92430752 267.48728715 119.2939742 271.31189861 123.6015625 275.265625 C125.53675048 277.00165127 127.51597192 278.58982631 129.56640625 280.18359375 C137.18928517 286.7097849 143.11461345 297.573683 144.10205078 307.56689453 C145.10026119 323.56016538 142.23747264 335.10597251 131.984375 347.62109375 C123.77177981 356.6412354 112.15706787 362.6677007 99.87890625 363.30859375 C90.87827111 363.37052473 83.04629895 362.12582737 74.87890625 358.30859375 C74.06035156 357.9321875 73.24179687 357.55578125 72.3984375 357.16796875 C61.47387025 351.40174248 53.8115305 340.62516714 46.2109375 331.17578125 C43.54850879 327.90237643 40.81754617 324.69495004 38.06640625 321.49609375 C37.56197998 320.90924805 37.05755371 320.32240234 36.5378418 319.71777344 C34.98584321 317.91386692 33.43260316 316.11103763 31.87890625 314.30859375 C20.45463935 301.05530101 20.45463935 301.05530101 15.44140625 294.87109375 C11.84254596 290.43620058 8.13158561 286.11291589 4.37890625 281.80859375 C-0.10394126 276.66676895 -4.48427528 271.46241619 -8.77734375 266.16015625 C-13.46141347 260.46120476 -18.30238463 254.89373038 -23.12109375 249.30859375 C-24.10207031 249.81648438 -25.08304688 250.324375 -26.09375 250.84765625 C-65.92433916 271.26606358 -108.95276229 276.48800007 -152.0078125 262.70458984 C-175.5345314 254.95580489 -195.56031981 241.61778067 -213.12109375 224.30859375 C-213.95898438 223.48359375 -214.796875 222.65859375 -215.66015625 221.80859375 C-244.8093819 191.45638418 -256.72120912 150.48578205 -256.3359375 109.26171875 C-255.40404932 66.82318392 -235.22776933 29.23225291 -205.05859375 0.30859375 C-147.41343186 -50.84018043 -57.67805728 -50.12734386 0 0 Z M-186.36328125 37.21484375 C-206.22687185 60.87458722 -219.84653891 90.73885397 -217.12109375 122.30859375 C-214.71690073 147.91992775 -206.70724637 172.02663356 -189.12109375 191.30859375 C-188.13109375 192.52675781 -188.13109375 192.52675781 -187.12109375 193.76953125 C-167.76363076 217.01315158 -138.47665036 228.38561006 -109.12109375 231.30859375 C-82.38438503 233.38054676 -52.9878909 224.60744301 -32.05859375 207.74609375 C-30.4024424 206.27848886 -28.75605759 204.79976598 -27.12109375 203.30859375 C-25.90292969 202.31859375 -25.90292969 202.31859375 -24.66015625 201.30859375 C-0.95045428 181.56297444 9.90821378 152.13051304 12.87890625 122.30859375 C15.50601238 92.22283034 3.03680855 63.024394 -15.64453125 40.18359375 C-34.86432476 18.02022826 -63.25155851 3.72507041 -92.515625 1.43359375 C-127.31916633 -0.23614137 -162.16092582 11.43142993 -186.36328125 37.21484375 Z " fill="#000000" transform="translate(358.12109375,139.69140625)"/>
<path d="M0 0 C7.26 0 14.52 0 22 0 C22 37.29 22 74.58 22 113 C14.74 113 7.48 113 0 113 C0 75.71 0 38.42 0 0 Z " fill="#000000" transform="translate(225,190)"/>
<path d="M0 0 C7.26 0 14.52 0 22 0 C22 28.71 22 57.42 22 87 C14.74 87 7.48 87 0 87 C0 58.29 0 29.58 0 0 Z " fill="#000000" transform="translate(305,217)"/>
<path d="M0 0 C7.26 0 14.52 0 22 0 C22 26.07 22 52.14 22 79 C14.74 79 7.48 79 0 79 C0 52.93 0 26.86 0 0 Z " fill="#000000" transform="translate(185,225)"/>
<path d="M0 0 C25.00325973 2.47218726 47.94313216 8.04295771 71 18 C70.29807915 22.93321834 68.36469225 27.25974682 66.4375 31.8125 C66.10814453 32.60076172 65.77878906 33.38902344 65.43945312 34.20117188 C64.63041094 36.13583796 63.81576148 38.06815753 63 40 C58.16517812 38.44595011 53.42971959 36.77790583 48.71166992 34.89624023 C32.40499855 28.48519171 15.28957133 25.43041974 -2 23 C-2.31433824 4.62867647 -2.31433824 4.62867647 0 0 Z " fill="#000000" transform="translate(274,45)"/>
<path d="M0 0 C3.02797848 1.34508244 4.99950268 2.81549999 7.25390625 5.23046875 C10.89252361 8.97163688 14.78096829 12.16584868 18.9375 15.3125 C19.6704126 15.8701001 20.4033252 16.4277002 21.15844727 17.00219727 C28.47988561 22.49151135 36.14809046 27.31484681 44 32 C45.59521484 32.96486328 45.59521484 32.96486328 47.22265625 33.94921875 C49.47631782 35.30902299 51.73438908 36.6602397 54 38 C53.40440894 42.86872054 51.27522585 46.59328841 48.9375 50.8125 C48.56044922 51.50537109 48.18339844 52.19824219 47.79492188 52.91210938 C46.86916148 54.61128985 45.93537688 56.30609425 45 58 C39.74567249 57.46405859 35.70858017 54.81278832 31.25 52.1875 C30.41307617 51.69685059 29.57615234 51.20620117 28.71386719 50.70068359 C13.24117895 41.49352942 -4.09513333 30.62059901 -15 16 C-10.23991693 10.4069024 -5.25404324 5.13122145 0 0 Z " fill="#000000" transform="translate(121,389)"/>
<path d="M0 0 C8.58481781 4.14070444 14.19903901 12.68945996 20 20 C20.81855469 21.01320313 21.63710938 22.02640625 22.48046875 23.0703125 C28.77403991 30.95926486 33.98189375 39.25528439 39 48 C39.56332031 48.92683594 40.12664062 49.85367188 40.70703125 50.80859375 C41.17496094 51.59363281 41.64289063 52.37867188 42.125 53.1875 C42.71667969 54.16783203 42.71667969 54.16783203 43.3203125 55.16796875 C44.20713381 57.55830894 43.88892288 58.63106487 43 61 C41.48120117 62.2043457 41.48120117 62.2043457 39.54296875 63.17578125 C38.84236328 63.52833984 38.14175781 63.88089844 37.41992188 64.24414062 C36.68322266 64.59669922 35.94652344 64.94925781 35.1875 65.3125 C34.46240234 65.68439453 33.73730469 66.05628906 32.99023438 66.43945312 C27.66075494 69.05787074 27.66075494 69.05787074 24.89819336 68.81591797 C22.46215103 67.76881141 21.96271356 66.80377383 20.7734375 64.45703125 C20.38679932 63.7199292 20.00016113 62.98282715 19.60180664 62.22338867 C19.19696045 61.42779541 18.79211426 60.63220215 18.375 59.8125 C10.60738501 45.23361705 0.82435356 31.11785223 -11.390625 19.875 C-12.25171875 18.92625 -13.1128125 17.9775 -14 17 C-13.74311081 13.68133587 -12.39269875 12.03174636 -10.05859375 9.765625 C-9.18364258 8.90517578 -9.18364258 8.90517578 -8.29101562 8.02734375 C-7.67935547 7.44082031 -7.06769531 6.85429688 -6.4375 6.25 C-5.82197266 5.64800781 -5.20644531 5.04601562 -4.57226562 4.42578125 C-3.05485187 2.94365619 -1.52829404 1.4709033 0 0 Z " fill="#000000" transform="translate(403,105)"/>
<path d="M0 0 C0.12677124 0.94746094 0.12677124 0.94746094 0.25610352 1.9140625 C3.04448597 22.19055153 7.24884632 41.94661013 15.93359375 60.5859375 C17 63 17 63 17 65 C14.06657102 66.34242421 11.12763748 67.67234067 8.1875 69 C6.93743164 69.57234375 6.93743164 69.57234375 5.66210938 70.15625 C4.85966797 70.5171875 4.05722656 70.878125 3.23046875 71.25 C2.12288208 71.75273437 2.12288208 71.75273437 0.99291992 72.265625 C-1 73 -1 73 -4 73 C-13.42219735 50.89837683 -23 26.47750771 -23 2 C-20.73779711 0.86889856 -19.07601193 0.690862 -16.5625 0.4375 C-15.78003906 0.35371094 -14.99757813 0.26992188 -14.19140625 0.18359375 C-9.46160874 -0.08849986 -4.73624387 -0.03295233 0 0 Z " fill="#000000" transform="translate(67,272)"/>
<path d="M0 0 C0.70078445 2.55951745 1.38585196 5.12159702 2.0625 7.6875 C2.26166016 8.40873047 2.46082031 9.12996094 2.66601562 9.87304688 C3.72033808 13.92386473 4.29133534 16.8823458 3 21 C1.25589844 21.51046875 1.25589844 21.51046875 -0.5234375 22.03125 C-18.53474529 27.42761927 -34.37896345 34.68727543 -50.17919922 44.89013672 C-52.07199282 46.04388299 -54.00494323 47.03578681 -56 48 C-69 32.38888889 -69 32.38888889 -69 29 C-67.49731445 27.83007812 -67.49731445 27.83007812 -65.36328125 26.53125 C-64.56954102 26.0475293 -63.77580078 25.56380859 -62.95800781 25.06542969 C-62.08499023 24.54883789 -61.21197266 24.03224609 -60.3125 23.5 C-59.40983398 22.96536133 -58.50716797 22.43072266 -57.57714844 21.87988281 C-43.8973567 13.90670776 -29.9369818 7.40572567 -14.9375 2.3125 C-13.90786133 1.9609082 -12.87822266 1.60931641 -11.81738281 1.24707031 C-10.85541992 0.93479492 -9.89345703 0.62251953 -8.90234375 0.30078125 C-8.05148193 0.02403564 -7.20062012 -0.25270996 -6.32397461 -0.5378418 C-3.83005067 -1.03379705 -2.38170121 -0.81747594 0 0 Z " fill="#000000" transform="translate(203,53)"/>
<path d="M0 0 C4.37068522 1.52274344 8.02802341 3.82591582 11.8125 6.4375 C12.7087207 7.03014648 12.7087207 7.03014648 13.62304688 7.63476562 C15.14004069 8.67672366 16.57786445 9.83189159 18 11 C18 15.01808311 16.08145297 17.40106181 14 20.6875 C4.05243299 36.88034404 -3.11273525 53.95787102 -9 72 C-15.86036401 71.34034961 -22.34443923 69.7637236 -29 68 C-30.87315061 62.77433552 -28.83199237 58.62540531 -27 53.6875 C-26.67894287 52.80102783 -26.35788574 51.91455566 -26.02709961 51.0012207 C-19.36021068 32.86304988 -11.09643879 15.84783944 0 0 Z " fill="#000000" transform="translate(81,135)"/>
<path d="M0 0 C7.26 0 14.52 0 22 0 C22 21.78 22 43.56 22 66 C14.74 66 7.48 66 0 66 C0 44.22 0 22.44 0 0 Z " fill="#000000" transform="translate(265,238)"/>
<path d="M0 0 C8.10907955 3.41591263 14.51172926 14.87982378 19.6328125 21.7734375 C20.24431152 22.59376465 20.85581055 23.4140918 21.48583984 24.25927734 C22.06027832 25.04512207 22.6347168 25.8309668 23.2265625 26.640625 C23.73896484 27.3404248 24.25136719 28.04022461 24.77929688 28.76123047 C26.23485382 31.05956119 27.19870254 33.34858483 28.1328125 35.8984375 C25.71803682 37.52630866 23.30110812 39.15081031 20.8828125 40.7734375 C20.20089844 41.23363281 19.51898438 41.69382813 18.81640625 42.16796875 C18.15253906 42.61269531 17.48867188 43.05742188 16.8046875 43.515625 C16.1972168 43.92409668 15.58974609 44.33256836 14.96386719 44.75341797 C13.07257187 45.93610798 11.14222388 46.93252354 9.1328125 47.8984375 C8.37097656 46.87105469 7.60914063 45.84367187 6.82421875 44.78515625 C-4.27698875 29.71205631 -4.27698875 29.71205631 -16.8671875 15.8984375 C-15.45630339 12.59190396 -13.81187381 10.7436558 -11.0546875 8.4609375 C-8.56797229 6.37893182 -6.27787588 4.3149083 -4.1171875 1.8984375 C-1.8671875 -0.1015625 -1.8671875 -0.1015625 0 0 Z " fill="#000000" transform="translate(442.8671875,82.1015625)"/>
<path d="M0 0 C2.37392632 1.02936434 3.13392853 2.04326654 4.55224609 4.19335938 C5.02500977 4.89146729 5.49777344 5.5895752 5.98486328 6.30883789 C6.72784668 7.4350354 6.72784668 7.4350354 7.48583984 8.58398438 C12.83670079 16.45108352 18.62841836 23.70882719 24.92333984 30.83398438 C23.2469166 35.08713223 20.20574894 37.95500252 17.04833984 41.14648438 C16.51853516 41.70916016 15.98873047 42.27183594 15.44287109 42.8515625 C13.86865234 44.44726562 13.86865234 44.44726562 10.92333984 46.83398438 C4.56073265 46.10860324 0.67507278 39.5212394 -3.07666016 34.83398438 C-7.07372203 29.56639471 -10.90389211 24.17840927 -14.70141602 18.76586914 C-16.08216949 16.77039227 -16.08216949 16.77039227 -17.81323242 14.77514648 C-18.23016357 14.13456299 -18.64709473 13.49397949 -19.07666016 12.83398438 C-17.57205124 8.32015762 -14.19036402 7.01596367 -10.26416016 4.58398438 C-9.5390625 4.1121875 -8.81396484 3.64039063 -8.06689453 3.15429688 C-7.36242188 2.7134375 -6.65794922 2.27257812 -5.93212891 1.81835938 C-5.28912842 1.41327148 -4.64612793 1.00818359 -3.98364258 0.59082031 C-2.07666016 -0.16601562 -2.07666016 -0.16601562 0 0 Z " fill="#000000" transform="translate(61.07666015625,384.166015625)"/>
<path d="M0 0 C1.40889735 4.6072278 2.8146456 9.21540038 4.2175293 13.82446289 C4.69486199 15.39113063 5.17304268 16.95754028 5.65209961 18.52368164 C6.3419334 20.77943098 7.02867683 23.03610169 7.71484375 25.29296875 C8.03520851 26.33701118 8.03520851 26.33701118 8.36204529 27.40214539 C9.42605991 30.91271098 10.3605486 34.38664067 11 38 C8.41909233 39.31746333 5.83549542 40.62909617 3.25 41.9375 C2.52039063 42.31068359 1.79078125 42.68386719 1.0390625 43.06835938 C0.33007812 43.42607422 -0.37890625 43.78378906 -1.109375 44.15234375 C-1.75874023 44.48226318 -2.40810547 44.81218262 -3.07714844 45.15209961 C-5.03293079 46.01452116 -6.91540694 46.54374179 -9 47 C-12.4113025 40.60571998 -14.84840205 34.12307519 -17.125 27.25 C-17.64513672 25.73792969 -17.64513672 25.73792969 -18.17578125 24.1953125 C-20.511234 17.19790233 -21.99696147 10.30576202 -23 3 C-20.1066878 2.29995665 -17.21116999 1.6146758 -14.3125 0.9375 C-13.49587891 0.73833984 -12.67925781 0.53917969 -11.83789062 0.33398438 C-10.64389648 0.05844727 -10.64389648 0.05844727 -9.42578125 -0.22265625 C-8.69786377 -0.39547119 -7.96994629 -0.56828613 -7.2199707 -0.74633789 C-4.61472881 -1.04402252 -2.53280235 -0.62492664 0 0 Z " fill="#000000" transform="translate(30,310)"/>
<path d="M0 0 C4.73789165 1.44323469 8.98858151 3.37226733 13.375 5.625 C14.33599609 6.11226562 14.33599609 6.11226562 15.31640625 6.609375 C16.87947501 7.40257407 18.44000622 8.20077031 20 9 C19.43633518 14.25270257 17.65005337 18.172435 15.3125 22.8125 C11.15304564 31.3188479 7.96761143 40.01847903 5 49 C-0.26621606 48.40421223 -4.94408019 47.18691204 -9.9375 45.4375 C-10.96327148 45.08655273 -10.96327148 45.08655273 -12.00976562 44.72851562 C-13.67508501 44.15788171 -15.33782493 43.57972902 -17 43 C-13.57947644 27.91711993 -6.64810021 13.88220317 0 0 Z " fill="#000000" transform="translate(28,140)"/>
<path d="M0 0 C7.47506395 3.27970512 12.58382535 10.37573803 17 17 C16.24976563 17.66644531 15.49953125 18.33289063 14.7265625 19.01953125 C5.20633681 27.55895157 -3.60396911 36.50725699 -11 47 C-17.72918698 43.56063777 -23.24900261 38.86702853 -29 34 C-23.09771001 21.1143075 -10.04683485 9.8184977 0 0 Z " fill="#000000" transform="translate(81,69)"/>
<path d="M0 0 C10.73743852 4.90262466 20.33308541 10.97645566 30.04296875 17.65771484 C32.67800794 19.4650309 35.33686714 21.23441033 38 23 C37.4661745 27.33466303 34.73736299 30.30959314 32.125 33.625 C31.45404297 34.50285156 31.45404297 34.50285156 30.76953125 35.3984375 C28.65555218 38.11730144 26.88848201 40.07434533 24 42 C23.13761719 41.40574219 22.27523437 40.81148437 21.38671875 40.19921875 C11.2180684 33.26945092 0.71040385 27.0522723 -10 21 C-8.51991304 15.99886406 -6.3681664 11.67084403 -3.875 7.125 C-3.50246094 6.43664063 -3.12992187 5.74828125 -2.74609375 5.0390625 C-1.83500474 3.35705202 -0.91809685 1.67819564 0 0 Z " fill="#000000" transform="translate(372,28)"/>
<path d="M0 0 C5.72018588 2.94535316 11.05930831 6.32922407 16.375 9.9375 C22.39267848 14.01794949 28.51993004 17.68586858 35 21 C33.51991304 26.00113594 31.3681664 30.32915597 28.875 34.875 C28.50246094 35.56335938 28.12992188 36.25171875 27.74609375 36.9609375 C26.83500474 38.64294798 25.91809685 40.32180436 25 42 C14.26256148 37.09737534 4.66691459 31.02354434 -5.04296875 24.34228516 C-7.67800794 22.5349691 -10.33686714 20.76558967 -13 19 C-11.472721 14.35707185 -8.93409202 11.02223041 -5.9375 7.25 C-5.47794922 6.66089844 -5.01839844 6.07179688 -4.54492188 5.46484375 C-1.23028274 1.23028274 -1.23028274 1.23028274 0 0 Z " fill="#000000" transform="translate(116,442)"/>
<path d="M0 0 C0.67189656 2.91555115 1.33769308 5.83226951 2 8.75 C2.19078125 9.575 2.3815625 10.4 2.578125 11.25 C2.75859375 12.04921875 2.9390625 12.8484375 3.125 13.671875 C3.37636719 14.77160645 3.37636719 14.77160645 3.6328125 15.89355469 C4 18 4 18 4 22 C-3.59823709 24.26023508 -11.22384934 25.59183878 -19.0625 26.6875 C-19.9714502 26.81874268 -20.88040039 26.94998535 -21.81689453 27.08520508 C-28.37010215 27.96277222 -34.27285968 28 -41 28 C-41.33 20.74 -41.66 13.48 -42 6 C-38.49632812 5.47599609 -38.49632812 5.47599609 -34.921875 4.94140625 C-32.65471467 4.60097115 -30.38765573 4.25986839 -28.12060547 3.91870117 C-26.54746809 3.68232553 -24.97422656 3.44664192 -23.40087891 3.21166992 C-21.13676528 2.87341163 -18.87304037 2.5326498 -16.609375 2.19140625 C-15.90818542 2.08719864 -15.20699585 1.98299103 -14.48455811 1.87562561 C-1.77604217 -0.0493345 -1.77604217 -0.0493345 0 0 Z " fill="#000000" transform="translate(310,483)"/>
<path d="M0 0 C7.80430008 -0.26455255 13.96951953 0.76454147 22 2 C21.34 15.86 20.68 29.72 20 44 C17.17588235 44.94137255 15.47081968 45.11725382 12.55078125 45.09765625 C11.70322266 45.09443359 10.85566406 45.09121094 9.98242188 45.08789062 C8.66081055 45.07532227 8.66081055 45.07532227 7.3125 45.0625 C6.41982422 45.05798828 5.52714844 45.05347656 4.60742188 45.04882812 C2.40488013 45.03704983 0.20247401 45.02060164 -2 45 C-2.02496844 40.48340204 -2.04298537 35.96684209 -2.05493164 31.45019531 C-2.05991896 29.91796162 -2.06671122 28.38573258 -2.07543945 26.85351562 C-2.20001816 4.40003631 -2.20001816 4.40003631 0 0 Z " fill="#000000" transform="translate(3,226)"/>
<path d="M0 0 C1.20282097 2.931458 2.38454273 5.87097242 3.5625 8.8125 C4.07586914 10.06256836 4.07586914 10.06256836 4.59960938 11.33789062 C4.91865234 12.14033203 5.23769531 12.94277344 5.56640625 13.76953125 C6.01415405 14.87711792 6.01415405 14.87711792 6.47094727 16.00708008 C7 18 7 18 6 21 C3.57738386 22.37072992 1.20433521 23.5794323 -1.3125 24.75 C-2.77492215 25.45526303 -4.23584886 26.16363486 -5.6953125 26.875 C-6.42266602 27.22949219 -7.15001953 27.58398438 -7.89941406 27.94921875 C-13.73448539 30.86811077 -19.66721913 33.95308184 -24.58203125 38.265625 C-27 40 -27 40 -28.98779297 39.82666016 C-31.49044704 38.79851326 -32.18722314 37.78598224 -33.61328125 35.5078125 C-34.05607422 34.80269531 -34.49886719 34.09757812 -34.95507812 33.37109375 C-35.40302734 32.62988281 -35.85097656 31.88867188 -36.3125 31.125 C-36.77978516 30.39152344 -37.24707031 29.65804687 -37.72851562 28.90234375 C-40.25309937 24.80781945 -40.25309937 24.80781945 -41 23 C-37.82919187 13.4875756 -16.48932697 6.36119709 -8.06201172 1.99633789 C-5.22440488 0.62524228 -3.17220117 0 0 0 Z " fill="#000000" transform="translate(158,21)"/>
<path d="M0 0 C9.11628987 0.50960627 17.57563097 1.78023241 26.4375 3.9375 C27.56865234 4.20240234 28.69980469 4.46730469 29.86523438 4.74023438 C35.00213209 5.95869805 40.00482968 7.27974457 45 9 C44.05540181 14.61787344 42.76083781 19.96209391 40.921875 25.359375 C40.5619043 26.42124023 40.20193359 27.48310547 39.83105469 28.57714844 C39.41968262 29.77645996 39.41968262 29.77645996 39 31 C38.29093506 30.83395264 37.58187012 30.66790527 36.85131836 30.49682617 C23.93341677 27.4775874 11.03021226 24.49514703 -2 22 C-1.34 14.74 -0.68 7.48 0 0 Z " fill="#000000" transform="translate(286,3)"/>
<path d="M0 0 C2.59582073 2.28562543 3.72002023 4.30899477 4.90234375 7.54296875 C5.23363281 8.44490967 5.56492187 9.34685059 5.90625 10.27612305 C6.41671875 11.71725464 6.41671875 11.71725464 6.9375 13.1875 C7.28941406 14.16823486 7.64132812 15.14896973 8.00390625 16.15942383 C15 36.03837077 15 36.03837077 15 44 C12.2735685 44.7003953 9.54476473 45.3855775 6.8125 46.0625 C6.04357422 46.26166016 5.27464844 46.46082031 4.48242188 46.66601562 C3.73154297 46.84970703 2.98066406 47.03339844 2.20703125 47.22265625 C1.5210083 47.39547119 0.83498535 47.56828613 0.12817383 47.74633789 C-2.437481 48.0521444 -4.50430473 47.61200778 -7 47 C-7.22139648 46.26475098 -7.44279297 45.52950195 -7.67089844 44.77197266 C-8.6926636 41.38823942 -9.72128512 38.00662658 -10.75 34.625 C-11.09804688 33.46871094 -11.44609375 32.31242187 -11.8046875 31.12109375 C-13.69641747 24.9204233 -15.72396867 18.92315519 -18.37207031 13.00146484 C-19 11 -19 11 -18 8 C-16.23413086 6.92504883 -16.23413086 6.92504883 -13.96484375 5.95703125 C-13.15595703 5.60576172 -12.34707031 5.25449219 -11.51367188 4.89257812 C-10.66353516 4.53615234 -9.81339844 4.17972656 -8.9375 3.8125 C-8.08349609 3.44447266 -7.22949219 3.07644531 -6.34960938 2.69726562 C-4.23699623 1.7884879 -2.12060231 0.88993798 0 0 Z " fill="#000000" transform="translate(490,156)"/>
<path d="M0 0 C6.57770444 0.69526805 12.92483301 1.98958948 19.375 3.4375 C21.34096225 3.87452459 23.30710694 4.31072934 25.2734375 4.74609375 C26.56386963 5.03504517 26.56386963 5.03504517 27.88037109 5.32983398 C32.24369064 6.26717255 36.62380115 7.12476023 41 8 C40.34 15.26 39.68 22.52 39 30 C29.88371013 29.49039373 21.42436903 28.21976759 12.5625 26.0625 C11.43134766 25.79759766 10.30019531 25.53269531 9.13476562 25.25976562 C3.99786791 24.04130195 -1.00482968 22.72025543 -6 21 C-4.55613874 13.78069368 -2.42211826 6.94889267 0 0 Z " fill="#000000" transform="translate(188,480)"/>
<path d="M0 0 C0.33 7.26 0.66 14.52 1 22 C-4.01659474 22.71592585 -9.03341976 23.42928786 -14.05126953 24.13623047 C-15.7565587 24.37725502 -17.46164077 24.61974974 -19.16650391 24.86376953 C-21.62348716 25.21517694 -24.0811778 25.56121122 -26.5390625 25.90625 C-27.29555084 26.0156189 -28.05203918 26.12498779 -28.83145142 26.2376709 C-32.92444104 26.80649934 -36.85478008 27.11466722 -41 27 C-41.67055285 24.06333774 -42.33659053 21.12577641 -43 18.1875 C-43.28617188 16.93743164 -43.28617188 16.93743164 -43.578125 15.66210938 C-43.75859375 14.85966797 -43.9390625 14.05722656 -44.125 13.23046875 C-44.29257813 12.49207764 -44.46015625 11.75368652 -44.6328125 10.99291992 C-45 9 -45 9 -45 6 C-29.83886873 2.38519324 -15.68051569 0 0 0 Z " fill="#000000" transform="translate(244,1)"/>
<path d="M0 0 C1.05380859 0.00483398 1.05380859 0.00483398 2.12890625 0.00976562 C3.19818359 0.02233398 3.19818359 0.02233398 4.2890625 0.03515625 C5.02511719 0.03966797 5.76117188 0.04417969 6.51953125 0.04882812 C8.31774408 0.06050483 10.11591447 0.07843614 11.9140625 0.09765625 C11.93909446 4.31111274 11.95707676 8.5245279 11.96899414 12.73803711 C11.97397112 14.16643021 11.98075512 15.59481837 11.98950195 17.02319336 C12.12458026 39.67662072 12.12458026 39.67662072 9.9140625 44.09765625 C2.21374073 44.40430623 -4.30321032 43.39477745 -12.0859375 42.09765625 C-11.4259375 28.56765625 -10.7659375 15.03765625 -10.0859375 1.09765625 C-3.3359375 -0.02734375 -3.3359375 -0.02734375 0 0 Z " fill="#000000" transform="translate(499.0859375,242.90234375)"/>
<path d="M0 0 C12.21 0 24.42 0 37 0 C37.495 11.385 37.495 11.385 38 23 C27.85730432 24.12696619 27.85730432 24.12696619 23.37109375 24.1328125 C22.39849609 24.13410156 21.42589844 24.13539063 20.42382812 24.13671875 C19.43833984 24.13285156 18.45285156 24.12898438 17.4375 24.125 C16.44814453 24.12886719 15.45878906 24.13273437 14.43945312 24.13671875 C13.46814453 24.13542969 12.49683594 24.13414062 11.49609375 24.1328125 C10.63169678 24.13168457 9.7672998 24.13055664 8.87670898 24.12939453 C5.23532818 23.96560502 1.61691495 23.45211437 -2 23 C-1.34 15.41 -0.68 7.82 0 0 Z " fill="#000000" transform="translate(237,445)"/>
<path d="M0 0 C0 13.53 0 27.06 0 41 C-7.59 40.34 -15.18 39.68 -23 39 C-23 26.79 -23 14.58 -23 2 C-19.9475 1.67 -16.895 1.34 -13.75 1 C-12.79448242 0.89558594 -11.83896484 0.79117188 -10.85449219 0.68359375 C-9.71222168 0.56177734 -9.71222168 0.56177734 -8.546875 0.4375 C-7.77182617 0.35371094 -6.99677734 0.26992187 -6.19824219 0.18359375 C-4.13842677 0.01156119 -2.06698688 0 0 0 Z " fill="#000000" transform="translate(467,235)"/>
</svg>
